<svg xmlns="http://www.w3.org/2000/svg" xmlns:xlink="http://www.w3.org/1999/xlink" viewBox="0 0 361 359.7"><defs><style>.cls-1{fill:#fff;}.cls-2{fill:url(#linear-gradient);}.cls-3{fill:url(#linear-gradient-2);}.cls-4{fill:#e43f35;}</style><linearGradient id="linear-gradient" x1="30.7" y1="181.67" x2="329.3" y2="181.67" gradientTransform="matrix(1, 0, 0, -1, 0, 361.32)" gradientUnits="userSpaceOnUse"><stop offset="0" stop-color="#f4bc7f"/><stop offset="1" stop-color="#f68b3d"/></linearGradient><linearGradient id="linear-gradient-2" x1="180" y1="32.32" x2="180" y2="330.92" xlink:href="#linear-gradient"/></defs><title>Logogram</title><g id="SVG"><rect class="cls-1" width="361" height="359.7"/><path class="cls-2" d="M317.3,156.7H42.7a12,12,0,0,0-12,12v21.9a12,12,0,0,0,12,12H317.3a12,12,0,0,0,12-12V168.7A12,12,0,0,0,317.3,156.7Z"/><path class="cls-3" d="M203,317V42.4a12,12,0,0,0-12-12H169a12,12,0,0,0-12,12V317a12,12,0,0,0,12,12h22A12,12,0,0,0,203,317Z"/><path class="cls-4" d="M261.1,131.2c-4.7,4.7-10.2,7-16.3,6.8a22.46,22.46,0,0,1-15.9-7,22.69,22.69,0,0,1-7.1-16q-.15-9.15,6.9-16.2c4.7-4.7,10.2-7.1,16.3-7a23.77,23.77,0,0,1,23,23C268.2,121,265.9,126.5,261.1,131.2Z"/><path class="cls-4" d="M196.1,66.2c-4.7,4.7-10.2,7-16.3,6.8a22.46,22.46,0,0,1-15.9-7,22.69,22.69,0,0,1-7.1-16q-.15-9.15,6.9-16.2c4.7-4.7,10.2-7.1,16.3-7a22.45,22.45,0,0,1,16.1,7,22.35,22.35,0,0,1,6.9,16C203.2,56,200.9,61.5,196.1,66.2Z"/><path class="cls-4" d="M66.4,196c-4.7,4.7-10.2,7-16.3,6.8a22.46,22.46,0,0,1-15.9-7,22.69,22.69,0,0,1-7.1-16Q27,170.65,34,163.6c4.7-4.7,10.2-7.1,16.3-7a22.45,22.45,0,0,1,16.1,7,22.35,22.35,0,0,1,6.9,16C73.4,185.8,71.1,191.2,66.4,196Z"/><path class="cls-4" d="M326.1,196.2c-4.7,4.7-10.2,7-16.3,6.8a22.46,22.46,0,0,1-15.9-7,22.69,22.69,0,0,1-7.1-16q-.15-9.15,6.9-16.2c4.7-4.7,10.2-7.1,16.3-7a23.77,23.77,0,0,1,23,23A22,22,0,0,1,326.1,196.2Z"/><path class="cls-4" d="M196.1,326.1c-4.7,4.7-10.2,7-16.3,6.8a22.46,22.46,0,0,1-15.9-7,22.69,22.69,0,0,1-7.1-16q-.15-9.15,6.9-16.2c4.7-4.7,10.2-7.1,16.3-7a23.77,23.77,0,0,1,23,23C203.2,315.9,200.9,321.4,196.1,326.1Z"/><path class="cls-4" d="M196.1,196.2c-4.7,4.7-10.2,7-16.3,6.8a22.46,22.46,0,0,1-15.9-7,22.69,22.69,0,0,1-7.1-16q-.15-9.15,6.9-16.2c4.7-4.7,10.2-7.1,16.3-7a23.77,23.77,0,0,1,23,23C203.2,186,200.9,191.5,196.1,196.2Z"/><path class="cls-4" d="M131.2,261.2c-4.7,4.7-10.2,7-16.3,6.8A22.46,22.46,0,0,1,99,261a22.69,22.69,0,0,1-7.1-16q-.15-9.15,6.9-16.2c4.7-4.7,10.2-7.1,16.3-7a23.77,23.77,0,0,1,23,23C138.2,250.9,135.9,256.4,131.2,261.2Z"/><path class="cls-4" d="M131.2,131.2c-4.7,4.7-10.2,7-16.3,6.8A22.46,22.46,0,0,1,99,131a22.69,22.69,0,0,1-7.1-16q-.15-9.15,6.9-16.2c4.7-4.7,10.2-7.1,16.3-7a23.77,23.77,0,0,1,23,23A22,22,0,0,1,131.2,131.2Z"/><path class="cls-4" d="M261.3,261c-4.7,4.7-10.2,7-16.3,6.8a22.46,22.46,0,0,1-15.9-7,22.69,22.69,0,0,1-7.1-16q-.15-9.15,6.9-16.2c4.7-4.7,10.2-7.1,16.3-7a23.77,23.77,0,0,1,23,23C268.4,250.7,266.1,256.2,261.3,261Z"/></g></svg>