<svg xmlns="http://www.w3.org/2000/svg" viewBox="0 0 841.89 595.28"><defs><style>.cls-1,.cls-6{fill:#f3f3f3;}.cls-2,.cls-22,.cls-23{fill:#010101;}.cls-2{fill-opacity:0.1;}.cls-11,.cls-3{fill:#b0bac5;}.cls-12,.cls-13,.cls-14,.cls-15,.cls-17,.cls-18,.cls-19,.cls-20,.cls-21,.cls-22,.cls-23,.cls-24,.cls-25,.cls-26,.cls-27,.cls-28,.cls-29,.cls-3,.cls-30,.cls-31,.cls-32,.cls-6,.cls-7{fill-rule:evenodd;}.cls-12,.cls-4{fill:#c5cfd6;}.cls-5{opacity:0.35;}.cls-7,.cls-8{fill:#dde3e9;}.cls-9{opacity:0.7;}.cls-10{fill:none;stroke:#cbcbcb;stroke-width:6.95px;}.cls-13{fill:#89c6cd;}.cls-14{fill:#c2dee2;}.cls-15{fill:#69a1ac;}.cls-16{fill:#fff;}.cls-17{fill:#b28b68;}.cls-18{fill:#191947;}.cls-19{fill:#3c4ca0;}.cls-20{fill:#465caa;}.cls-21{fill:#e4e4e4;}.cls-22{fill-opacity:0.1;}.cls-23{fill-opacity:0.4;}.cls-24{fill:#925c3d;}.cls-25{fill:#2f3776;}.cls-26{fill:#5c64ac;}.cls-27{fill:#e87725;}.cls-28{fill:#f99b26;}.cls-29{fill:#d5a282;}.cls-30{fill:#ba8b72;}.cls-31{fill:#db2a27;}.cls-32{fill:#ef4639;}</style></defs><title>titiktemu</title><g id="Production-Landingpage"><g id="Clock"><circle id="Clock-Frame" class="cls-1" cx="619.38" cy="153.23" r="46.05"/><circle id="Time" class="cls-2" cx="619.38" cy="116.73" r="2.61"/><circle class="cls-2" cx="582.89" cy="153.23" r="2.61"/><circle class="cls-2" cx="655.87" cy="153.23" r="2.61"/><circle class="cls-2" cx="619.38" cy="189.72" r="2.61"/><polygon id="Hand" class="cls-3" points="619.38 121.95 621.12 152.36 617.64 152.36 619.38 121.95"/><polygon class="cls-3" points="634.76 168.6 618.78 155.09 621.24 152.63 634.76 168.6"/><circle class="cls-4" cx="619.38" cy="153.23" r="3.48"/></g><g id="Background-Shape-2" class="cls-5"><path id="Background-Shape" class="cls-6" d="M570.55,395.1c-6-66.94-327.41-196.15-387.08-132.74s-2.31,182.41,122.74,212.88S576.54,462.05,570.55,395.1Z"/><path class="cls-7" d="M371.88,438.6C377.25,381.73,665.16,272,718.61,325.83S758.53,493,646.52,518.89,366.52,495.47,371.88,438.6Z"/></g><g id="Light"><ellipse id="Hanging-Lamp-Light" class="cls-1" cx="199.29" cy="195.95" rx="36.93" ry="19.55"/><path id="Hanging-Lamp" class="cls-7" d="M242.3,209.42a43,43,0,1,0-86,0"/></g><rect id="Wire" class="cls-8" x="197.12" y="33.32" width="4.34" height="139.02"/><g class="cls-9"><ellipse class="cls-1" cx="266.63" cy="155.7" rx="27.6" ry="15.78"/><path class="cls-7" d="M298.77,166.56c0-19.36-14.39-35.05-32.14-35.05s-32.15,15.69-32.15,35.05"/><rect class="cls-8" x="264.89" y="33.32" width="4.34" height="118.16"/></g><path id="Body" class="cls-10" d="M642,236.84,658.1,220.7a6.94,6.94,0,0,1,9.83,0h0l42.94,43A13.89,13.89,0,0,1,715,273.5V558.11"/><rect id="Lamp-Base" class="cls-11" x="688.89" y="557.24" width="51.26" height="6.08" rx="2.61"/><g id="Lamp-Top"><path id="Lamp" class="cls-12" d="M651.67,227.37h0a28.67,28.67,0,0,1,0,40.55l-17.2,17.2-40.55-40.55,17.21-17.2A28.66,28.66,0,0,1,651.67,227.37Z"/><ellipse class="cls-1" cx="614.88" cy="264.38" rx="5.65" ry="28.67" transform="translate(-6.85 512.22) rotate(-45)"/></g><g id="Big-Leaf-Plant"><g id="Big-Ass-Leaf"><path id="leaf" class="cls-7" d="M189.52,356.69a14.65,14.65,0,0,1,7.46.78c4.92,2.09,6.32,7.91,6.26,12.63-.08,5.09-1.16,10.65,2.71,14.75,1.78,1.88,4,3.32,5.73,5.24A24.86,24.86,0,0,1,216.1,397c2,4.62,3,10.07,1.14,14.92-1.6,4.28-5.63,8.13-4.76,13,.91,5.07,6,8.95,9.22,12.73,3.62,4.27,7,9.73,7.49,15.34.53,5.37-1.81,10.8-5.4,14.86-7.17,8.11-17.94,12.09-28.81,12.06-4.61,0-9.84-.21-13.82-2.69a7.67,7.67,0,0,1-2.61-2.82,9.06,9.06,0,0,0-2.52-2.53,14.93,14.93,0,0,1-4.81-6.42c-3.94-9.76-.79-21.84,4.73-30.5,1.3-2.06,2.37-4,1.74-6.48s-2.29-4.86-3.74-7.06a57.31,57.31,0,0,1-4.16-6.58,15.1,15.1,0,0,1-1.29-7.73,26.31,26.31,0,0,1,5.66-13.78c3-3.91,6.47-7.66,6.48-12.79,0-5.44-3.63-10.27-2.08-15.8a10.54,10.54,0,0,1,4-6A16.32,16.32,0,0,1,189.52,356.69Z"/><path id="middle-thing" class="cls-12" d="M187.9,365.38a1.25,1.25,0,0,1,1.59-1c.9.25.88,1.09.86,1.84a24.5,24.5,0,0,0,.81,6.76c1.15,4.63,3.27,8.9,5,13.35a24.31,24.31,0,0,1,1.48,13.74c-.93,4.43-2.39,8.76-3.34,13.2-.84,3.91-1.73,8-.45,11.95,1.23,3.75,3.94,6.82,5.89,10.21a48.09,48.09,0,0,1,6.08,22.86,43,43,0,0,1-.85,11.15c-.5,2.1-1.17,5-3,6.4-.84.67-2.26.9-3-.09s-.08-2.37.13-3.36a51.51,51.51,0,0,0,.87-13.05,47.2,47.2,0,0,0-2-12.48,42.12,42.12,0,0,0-5.32-10.38c-2.24-3.34-4.58-6.68-5.51-10.64s-.18-8.1.85-12c1.08-4.17,2.5-8.22,4-12.27a21.55,21.55,0,0,0,1.15-11.83C191.53,381.56,187.35,373.89,187.9,365.38Z"/></g><path class="cls-7" d="M255.24,366.6a18.73,18.73,0,0,1,8.33,4.81c4.67,5,3.24,12.64.66,18.19-2.77,6-7,12-4.61,18.85,1.09,3.15,2.92,6,4,9.18a32.18,32.18,0,0,1,1.52,10.48c-.12,6.51-1.85,13.45-6.55,18.24-4.14,4.23-10.9,6.69-12.45,12.89-1.61,6.47,2.33,13.71,4.09,19.84,2,6.94,3,15.13.68,22-2.23,6.63-7.84,11.84-14.19,14.77-12.7,5.87-27.44,5-40.17-.72-5.41-2.41-11.42-5.37-14.78-10.38a9.79,9.79,0,0,1-1.58-4.69,11.77,11.77,0,0,0-1.62-4.3,19.45,19.45,0,0,1-2.25-10.1c.54-13.59,10.61-26.23,21.67-33.61,2.62-1.75,4.92-3.53,5.47-6.76s-.12-6.93-.65-10.28a71.47,71.47,0,0,1-1.4-10,19.4,19.4,0,0,1,2.57-9.8c3.12-5.78,8.15-10.16,13.92-13.36,5.56-3.08,11.63-5.69,14.35-11.75,2.89-6.43,1.18-14,5.92-19.77a13.75,13.75,0,0,1,7.87-5C249,364.86,252.34,365.72,255.24,366.6Z"/><path class="cls-12" d="M249,377.23a1.59,1.59,0,0,1,2.37-.33c.92.77.46,1.76,0,2.63a32.18,32.18,0,0,0-2.59,8.43c-1.08,6.08-.84,12.25-1.2,18.4s-1.85,12-5.47,17.05c-3.41,4.77-7.38,9.12-10.81,13.88-3,4.2-6.24,8.62-6.79,13.91-.53,5.1,1,10.14,1.54,15.19,1.05,10.45-.94,20.62-4.86,30.26a56.14,56.14,0,0,1-6.84,12.75c-1.68,2.23-4,5.25-6.83,6-1.32.36-3.11-.11-3.4-1.65s1.14-2.85,1.91-3.92a67.15,67.15,0,0,0,7.85-15A62.07,62.07,0,0,0,218,479a55.73,55.73,0,0,0-.78-15.08c-.88-5.13-1.86-10.31-.88-15.48s4-9.69,7.3-13.82c3.45-4.37,7.23-8.42,11.07-12.45a28.05,28.05,0,0,0,7.54-13.4C244.72,398.29,243.85,387,249,377.23Z"/><path class="cls-12" d="M160,405.19a16.55,16.55,0,0,1,12.73,6.57c3.63,4.51,4.36,10,5.84,15.39a13.73,13.73,0,0,0,4.21,7.15c2,1.65,4.56,2,7,2.79A16.26,16.26,0,0,1,200,447.33c1.88,5.79-.11,11.62.23,17.49.32,5.38,5.63,8.74,9.9,11.32s8,4.93,9.27,9.89c1.35,5.26,1.8,11.13-.06,16.32-3.11,8.65-12.18,12.46-21,13-8,.54-18-.3-23.95-6.08-3.57-3.46-4.87-8.3-4.71-13.11a39.72,39.72,0,0,1,1.46-8.85,40.38,40.38,0,0,0,1.49-6.21c.55-5.63-4.66-6.71-9.09-8.26A21.64,21.64,0,0,1,151.26,462c-2.55-4.82-3.62-10.23-2.09-15.53a18.11,18.11,0,0,1,4.12-7.25c.85-.92,2-1.69,2.81-2.66a3.61,3.61,0,0,0,.31-3.13c-1.14-4.88-4.68-8.92-5.95-13.79-1.14-4.4-.46-9.88,3.56-12.72A10.6,10.6,0,0,1,160,405.19Z"/><path class="cls-3" d="M167,417.91c5.43,5.79,6.91,13.63,7.34,21.24.24,4.26,0,8.76,1.24,12.89,1.07,3.54,3.59,6.25,6.18,8.8,5.21,5.15,11,10.39,12.55,17.84.89,4.37.29,8.88,1.53,13.21A36.2,36.2,0,0,0,201.35,503c1.93,2.67,4.46,4.72,6.58,7.21.65.76,1.57,1.88,1.31,2.95-.32,1.26-1.92,1.66-3.06,1.46-2.64-.46-4.87-3-6.61-4.83a41.6,41.6,0,0,1-6.43-8.83A37.12,37.12,0,0,1,189,489.49c-.69-4.19-.35-8.56-1.93-12.59-2.66-6.77-9.13-10.77-13.8-16-5.82-6.58-4.95-14.77-4.36-22.86.33-4.45.66-9.47-1.59-13.53-.86-1.55-2.77-3-3.14-4.75S165.65,416.47,167,417.91Z"/><path id="Base" class="cls-13" d="M172.79,512.93c0,33.07,5.4,50.39,33.89,50.39s33.88-17.32,33.88-50.39Z"/></g><g id="Table"><rect class="cls-11" x="290.09" y="465.14" width="33.02" height="7.82" rx="1.74"/><path id="Lamp-Body" class="cls-7" d="M298.77,440A145.68,145.68,0,0,0,305,401.72h4A145.68,145.68,0,0,0,315.28,440h5.65a13.47,13.47,0,1,1,0,26.93H292.26a13.47,13.47,0,1,1,0-26.93Z"/><path id="Shade" class="cls-12" d="M275.86,341.49Q290.78,340,305.72,340t29.87,1.46l4,69q-17,1.62-33.89,1.62t-33.88-1.62Z"/><path class="cls-6" d="M270.1,473h90.36v90.36H342.22V492.08H270.1v71.24H251.86V473Z"/></g><g id="Plant"><g id="Succulents"><path class="cls-14" d="M615.37,318.49C623,336.73,636.09,349.4,643,368.36c4.09,11.24,5.8,23.47,5.91,36,.05,6.8-.07,13.61-.1,20.41,0,6.63-.21,13.23-.77,19.82s-1.2,13.17-1.48,19.83c-.22,5.2-.32,11.24-2.08,16-1.4,3.77-5,4.32-5.9-.25a36.1,36.1,0,0,1-.4-8c.07-3.35.27-6.69.37-10,.4-13.44-.12-26.88.15-40.33.26-13.13,1.95-26.26.08-39.3-1.54-10.78-5.46-20-10-28.9-4.34-8.54-9.05-16.86-12-26.57a46.74,46.74,0,0,1-1.8-8.68C615.17,318.27,615.28,318.32,615.37,318.49Z"/><path class="cls-13" d="M613.28,354.47c1.52,1.09,2.36,2.7,3.39,4.28,1.28,2,2.78,3.75,4.06,5.72,2.66,4.11,5,8.47,7.43,12.75A83.58,83.58,0,0,1,638,403.36c1.79,9.73,2.28,19.77,3,29.65.8,10.46,1.61,21,1.71,31.51,0,4.7.3,9.7-.26,14.37-.35,2.91-1.67,5.39-4.63,5.37-6.28-.05-9.24-7-10.47-12.73a107.35,107.35,0,0,1-1.89-25.94c.35-10.37,2.15-20.59,2.93-30.92.82-10.93.36-21.67-3.4-32-1.9-5.21-4.11-10.28-6.09-15.45a49.4,49.4,0,0,0-2.67-6.51c-1.27-2.28-2.84-4.35-3.83-6.81Z"/><path class="cls-14" d="M685.7,332.66l.58-.45a57.86,57.86,0,0,1-2.32,6.38,53,53,0,0,0-1.51,6.2c-1.09,4.93-2.35,9.76-3.37,14.74-2,9.85-1.66,20.46-.32,31.39C680,401.24,682,411.55,683,421.87a141.21,141.21,0,0,1,.37,25.55c-.51,5.55-2.18,12.17-6.75,11.61-2.15-.26-3.27-2.85-3.72-5.77-.72-4.69-.88-9.62-1.16-14.29-.63-10.41-.76-20.79-.88-31.09-.12-9.72-.44-19.63.21-29.11a89.17,89.17,0,0,1,5.38-25c1.48-4,2.88-8.1,4.54-11.92.8-1.83,1.77-3.45,2.56-5.28A11.3,11.3,0,0,1,685.7,332.66Z"/><path class="cls-14" d="M615.22,384.6c.83-1.39,2.66,3.21,2.94,3.79l-.36-.86a38.38,38.38,0,0,1,4.1,8.74c.93,3.12,1.73,6.3,2.6,9.43,1.63,5.89,3.74,11.61,5.23,17.55a57.14,57.14,0,0,1,1.45,17.46,150.42,150.42,0,0,0-.16,18.75c.2,3,1.17,5.74,1.83,8.6s1.18,5.76,2,8.59c.18-.37.2.86.2,1a6,6,0,0,1-.33,2,5.29,5.29,0,0,1-3.34,3.66c-3,.86-5.79-1.87-6.76-4.76a79.68,79.68,0,0,1-2.82-13.06,62.18,62.18,0,0,1-.57-12.05c.36-8,1.8-15.84,2.19-23.82.43-8.68-1.29-16.83-2.73-25.28a74.53,74.53,0,0,0-2.71-12,33.78,33.78,0,0,0-2-4.41C615.52,387,614.66,385.57,615.22,384.6Z"/><path class="cls-15" d="M639.58,371.05c-.34,9.94-.94,19.81-2.26,29.65-1.35,10-2.91,20-4.21,30.09-1.27,9.79-2.6,19.73-2.42,29.65.13,7.31-1.08,19.67,7,23.27s10-11.94,10.53-17.09c1-9.87.69-19.85.19-29.78-.51-10.19-1.37-20.33-2.44-30.49-1.18-11.28-2.11-22.61-2.86-33.92-.37-5.59-.46-11.18-.35-16.77.09-5.28-.11-10.62-2-15.63l-.29.21"/><path class="cls-13" d="M682,402.55c-1.48,2.15-3,4.28-4.36,6.56a34.6,34.6,0,0,0-5.44,14.46c-1.42,12.21-.28,25.4,0,38,0,2.57-.27,5.07.74,7.51.92,2.22,2.64,3.91,4.27,3.9,3.51,0,3-8.6,3-12.38,0-6.62-.73-13.31-.67-19.93A139.44,139.44,0,0,1,681,421.29a111.36,111.36,0,0,1,4.23-18c.26-.78,2.11-6.84.36-5.8"/><path class="cls-15" d="M666.53,337.42c-2.31,0-2.29,11.49-2.36,13-.25,5.33-.2,10.66-.35,16-.35,11.63-.78,23.36-2.52,34.85-.94,6.19-2,12.35-3.21,18.49s-2.75,12.3-3.52,18.54c-.75,6-.33,12.1-.23,18.13a161.58,161.58,0,0,0,1.08,18.14c.2,1.48.43,3,.68,4.43a33.33,33.33,0,0,0,.43,3.92c.55,1.87,2.93,2.48,4.54,2.19,4.33-.79,7.1-6.24,8.59-10.22a95.66,95.66,0,0,0,3.88-15.95,138.16,138.16,0,0,0,2.09-18.4c.63-12.55-.17-25.12-1.07-37.63-.5-7-1.08-13.89-2-20.81s-2-13.74-2.74-20.65c-.54-5-1.06-10-1.41-15.08-.08-1.2-.15-8.9-1.91-8.9"/><path class="cls-13" d="M663.64,421c-.38-12.06-5.23-65.06-6.33-79.65-.27-3.65-2.93-18.85-3.28-23-.93,1.17-.85,19.38-.84,23.57s-.5,8.21-.77,12.33-6.48,58.46-7.28,62.49c-1.61,8-2.68,16.28-3.51,24.49-.8,8-2.06,16.45-1,24.49a24.69,24.69,0,0,0,1.28,5.38c.69,1.84,1.16,3.54,1.72,5.46.89,3.1,2.5,5.82,5,7.1,5.09,2.62,7.81-3.32,9.2-8.49a137.73,137.73,0,0,0,4.29-25.31c.74-9.6,1.82-19.21,1.52-28.87"/></g><g id="Planter"><rect id="Vase" class="cls-16" x="609.82" y="456.46" width="79.07" height="79.07" rx="1.74"/><rect id="Leg" class="cls-4" x="601.13" y="465.14" width="8.69" height="98.18" rx="1.74"/><rect class="cls-4" x="644.58" y="465.14" width="8.69" height="98.18" rx="1.74"/><rect class="cls-4" x="688.89" y="465.14" width="8.69" height="98.18" rx="1.74"/></g></g><g id="Head"><path class="cls-17" d="M696.92,318.28c4-4.65,6.64-10.35,6.19-16.73-1.29-18.39-26.89-14.35-31.87-5.07s-4.39,32.83,2,34.49c2.56.66,8-1,13.6-4.31l-3.5,24.71H704Z"/></g><path id="Combined-Shape" class="cls-18" d="M690.5,308.29a4.11,4.11,0,0,1,2.35-.75,4.42,4.42,0,0,1,4.29,4.3,5.11,5.11,0,0,1-2.6,4.77c.82,1.59,1.64,2.75,2.6,3,3.72-.37,8.6-9.6,8.6-17.18,0-8.3-6.6-15.47-18.91-15.47-11.06,0-15.25,4.56-15.47,8.59,4.74,1.3,13,1.8,24.93,1.72v.86L686,299l-1.72,5.15C687,303.9,688.94,305.78,690.5,308.29Z"/><ellipse id="Ballsy-Ball" class="cls-4" cx="712.61" cy="509.07" rx="66.17" ry="63.17"/><path id="Skin" class="cls-17" d="M587.56,562.49c11-24.37,19-45.59,22.17-56.79,5.48-19.17,9.64-36,10.69-42.34,2.51-15-19.3-15.89-22.18-8.43-4.37,11.3-12,48.43-21.14,104.51ZM715.29,486c-10.1-4-45.48-16.49-62.55-20-4.9-1-9.65-2-14.12-2.81-13.28-2.53-20.16,21.43-7.37,23.27,31.85,4.58,77,9.32,80.88,9.85C717.54,497,721.64,488.52,715.29,486Z"/><path id="Leg-Back" class="cls-19" d="M630.47,456.58l54.64-27.82V422.7h-6.5q-79.29,20.21-81,25.9a.65.65,0,0,0,0,.13l-.08.1c-10.47,14.41-16.75,84.76-18.81,90l20.08,3c7.68-28.48,32.25-48.32,31.6-82.43A11.56,11.56,0,0,0,630.47,456.58Z"/><path id="Leg-Front" class="cls-20" d="M680.57,473.1c5-1,9.61-1.9,13.55-2.59,25.45-4.46,32.87-18.08,28.48-47.81H675.71c-7.66,2.2-47.47,18.9-68.12,27.78-13.67,5.87-9.36,27.06-1.62,32.57a.74.74,0,0,0,.43.67C648,501,681,491.92,692,494.82l5.09-16.06Z"/><path id="shoe" class="cls-21" d="M711.83,483.46a18.33,18.33,0,0,1,5.81,1.23,42.1,42.1,0,0,1,5.76,3.67l-21.25,43.56q-6.43-1-5.1-4.91t2.15-6.48l.85-24.65a.87.87,0,0,1,.89-.83h0l3.79.24a15.34,15.34,0,0,0,4.26-4.73,13.89,13.89,0,0,0,.93-5.43h0a1.72,1.72,0,0,1,1.76-1.68Z"/><path class="cls-21" d="M592.57,558a18.19,18.19,0,0,1,1.45,5.76,42.75,42.75,0,0,1-.78,6.78H544.77q-1.89-6.24,2.18-6.74c2.71-.34,5-.64,6.76-.9l22.53-10a.86.86,0,0,1,1.14.44v0l1.45,3.51a15.31,15.31,0,0,0,6.12,1.76,13.85,13.85,0,0,0,5.29-1.54h0a1.72,1.72,0,0,1,2.28.84S592.56,557.94,592.57,558Z"/><path class="cls-17" d="M633.64,405.63l-27.41,20.13a73.4,73.4,0,0,0-18.64,7.49c-1.17,1.07-2.6,3.24,2.29,2.87s10-.55,10.72,1.11-2.29,3.66-.92,5.91q1.37,2.25,12.88-11.28l27.14-11.25Zm124.06-8.39L742.56,400q26.36,52.29,28.23,55.3c2.81,4.5,0,12.63-1.1,16.91,6.23,1.57,3.93-7.89,11.81-5.79,7.19,1.92,13.23,6.63,20.07.54.85-.75,1.49-3.12-1.31-4.4-7-3.17-17.27-9.06-18.92-11.3Q778,446.64,757.7,397.24Z"/><path id="Back-Arm" class="cls-15" d="M627.26,407.82a29.43,29.43,0,0,0-11.48,1.71,3.87,3.87,0,0,0,0,7.32l-2.38,1.71,6.91,14.12c29.1-14.51,56.46-25.45,68.92-49.41,4.19-8,2.77-35.35,3.17-45.28l-9.19-3.77C670.35,360.7,653,386.11,627.26,407.82Z"/><path id="Shirt" class="cls-18" d="M724.65,430.36q-40.53,4.45-63.8,0c-1.93-.37-1.84-8.65-1-10.92,13.88-35.24,23-61,23-85.51q3.83,2,13.38.6C713.4,359.75,721.27,388.69,724.65,430.36Z"/><path id="Coat-Front" class="cls-13" d="M729.67,434.53a3.9,3.9,0,0,0,1.16-3.49l-.45-2.54a3.86,3.86,0,0,0-3.35-3.17c-.29-1.29-.54-2.57-.74-3.84-1.74-10.74,1.23-21.27,1.09-31.61q20.73,17.69,37.19,61.07l16.23-4.77c-.62-2.3-1.26-4.58-1.93-6.82,1.88-1.07,4.07-5.94,2.49-6.76a19.1,19.1,0,0,0-5.17-1.79q-22.32-67.23-73-98.35h-9.77c2.88,38.06-36.87,121.14-23.07,192.1,25.51,5.69,61.93-12,97.38,2.13C766.4,498.12,740,464.55,729.67,434.53Z"/><polygon id="Shade-Lapel" class="cls-22" points="699.63 333.32 704.07 346.96 695.14 357.18 703.21 365.21 683.68 398.64 707.56 365.28 699.63 357.18 707.56 348.15 699.63 333.32"/><path id="Buttons" class="cls-23" d="M689.41,411.53a3.44,3.44,0,1,0-3.44-3.44A3.44,3.44,0,0,0,689.41,411.53Zm-4.3,19.77a3.44,3.44,0,1,0-3.43-3.44A3.44,3.44,0,0,0,685.11,431.3Zm-.86,19.76a3.44,3.44,0,1,0-3.43-3.43A3.44,3.44,0,0,0,684.25,451.06Z"/><g id="Head-2" data-name="Head"><path class="cls-24" d="M159.65,321.94c-3.94-4.62-6.6-10.28-6.16-16.63,1.29-18.28,26.73-14.26,31.68-5s4.36,32.63-2,34.28c-2.55.66-8-1-13.52-4.29l3.47,24.56h-20.5Z"/></g><path id="Hair" class="cls-18" d="M158.07,326.05c-2.57-11.44-9.9-19.25-8.78-24.36a7.76,7.76,0,0,1,6-6.37q2.51-10.14,16.17-8.63c13.67,1.52,22,7.19,18.41,19.68-3.31,0-7.31-1.19-12.84.86-1.75.65-3,2.67-3.76,6h-2.5q-3.65-6-7.17-4.43T162,316.62l-1.23,9.43Z"/><path id="Seat" class="cls-12" d="M81.69,475.28v78.59a13.67,13.67,0,0,0,13.67,13.66h98.23a13.67,13.67,0,0,0,13.67-13.66V475.28a13.67,13.67,0,0,0-13.67-13.67H95.36A13.67,13.67,0,0,0,81.69,475.28Zm98.24,10.25a3.42,3.42,0,0,1,3.41,3.42V540.2a3.42,3.42,0,0,1-3.41,3.42H109a3.42,3.42,0,0,1-3.42-3.42V489a3.42,3.42,0,0,1,3.42-3.42Z"/><path id="LegLower" class="cls-17" d="M292,563.26q-25.26-30.84-34.18-45.74c-10.19-17-18.53-32.12-21.16-37.9-6.27-13.78,14.45-20.23,19.13-13.8q10.65,14.6,45.47,91.82Z"/><path class="cls-25" d="M257.45,557.28l-31.34-78.89c-6.7-14.39,25.67-23.84,30.6-17.15,11.18,15.2,37.76,75.14,41.1,79.67Z"/><g id="Lower-Leg"><path class="cls-24" d="M174,541.46c6.11-8.91,28.32-38.87,40.41-51.27,3.48-3.56,6.87-7,10.08-10.16,9.53-9.48,28.52,6.44,19,15.07-23.7,21.48-58.28,50.49-61.17,53.07C178.24,551.8,170.14,547.06,174,541.46Z"/></g><path id="shoe-2" data-name="shoe" class="cls-21" d="M175.4,537.44a18.2,18.2,0,0,0-4.1,4.24,43.55,43.55,0,0,0-2.71,6.22L210.32,572q4.73-4.43,1.47-6.89T206.42,561L192,541.13a.85.85,0,0,0-1.19-.19h0l-3,2.31a15.42,15.42,0,0,1-6.15-1.53,14,14,0,0,1-3.78-4h0a1.71,1.71,0,0,0-2.38-.41Z"/><path class="cls-21" d="M284.72,560.19a18.18,18.18,0,0,0-1.43,5.73,42.09,42.09,0,0,0,.77,6.74h48.17c1.26-4.14.53-6.37-2.16-6.7s-4.94-.63-6.73-.9l-22.39-10a.86.86,0,0,0-1.13.43v0L298.37,559a15.24,15.24,0,0,1-6.08,1.75,13.87,13.87,0,0,1-5.26-1.53h0a1.69,1.69,0,0,0-2.26.84A.37.37,0,0,0,284.72,560.19Z"/><path id="Leg-and-Butt" class="cls-26" d="M214.83,482.33q-39.08-6.37-52.35-8.71c-25.22-4.45-32.57-18-28.22-47.63h46.46q9.22,2.67,77.08,32.95c8.14,4,6.63,15.95,5.14,19.88q-.09.24-41.16,70.53l-38-24.21,31.14-40C215.72,483.52,215.7,482.57,214.83,482.33Z"/><path id="Skin-2" data-name="Skin" class="cls-24" d="M212.15,429.7l27,11.19q11.45,13.44,12.8,11.21c1.35-2.24-1.59-4.22-.92-5.87s5.8-1.49,10.66-1.11,3.44-1.79,2.27-2.86a73.12,73.12,0,0,0-18.52-7.44l-27.25-20ZM102.53,470.07c-1.22,2.49-10.28,10-16.56,14.34-2.53,1.73-1.48,3.94-.53,4.53,7.75,4.78,12.85-.87,19.56-4,7.35-3.42,6.73,6.23,12.55,3.63-1.78-4-6-11.47-4-16.37q1.32-3.27,17.85-56.64l-17.85-.07Q105,465,102.53,470.07Z"/><path id="Coat-Back" class="cls-27" d="M164.29,340.6l7.39-1.27c27.4,23.67,38.66,69.16,72.25,93.25l-8.08,10C177.57,435.39,163.12,379.91,164.29,340.6Z"/><path id="Shirt-2" data-name="Shirt" class="cls-7" d="M132.09,433.42h65.36c3,0,2.42-4.31,2-6.49C194.46,401.82,175,374.75,175,339l-18.86-3C140.56,361.12,135.17,392,132.09,433.42Z"/><path id="Coat-Front-2" data-name="Coat-Front" class="cls-28" d="M132.61,360.69a10.78,10.78,0,0,1-6.5-5.5c-6.89-12.44-4.4-19.28,3-21.53S143,336,154.73,336a11.88,11.88,0,0,1,1.76.12l5.9.34q25.4,86.07,14,114.86H125a176.51,176.51,0,0,1-8.75,17.94h-14Q100.21,405.32,132.61,360.69Z"/><path id="Shade-2" data-name="Shade" class="cls-22" d="M136.16,421.89q2.43,20.3,7.89,29.47H125Q130.29,438.92,136.16,421.89Z"/><g id="humaaan-12"><g id="Head-3" data-name="Head"><path class="cls-29" d="M461.46,270.29c-2.53-5.32-3.6-11.3-1.59-17.14,5.79-16.82,28.65-6.65,31,3.24s-4.11,31.7-10.52,31.63c-2.56,0-7.25-2.9-11.6-7.41l-2.92,23.9-19.22-5.15Z"/></g><path id="hair-2" data-name="hair" class="cls-18" d="M468.44,270.87c-3.61,3.93-7.83,6.5-11.13,5.61-6.25-1.67-8.46-11.23-6.05-20.22l.27-.94c-7.83,2.77-15.33,10.35-24.09,8-11.91-3.19-10.21-28.49,6.44-24,11.32,3,16.45,6.17,20.59,9.9a16.15,16.15,0,0,1,5.89-5.36,6.6,6.6,0,0,1,2.28-.85,9.82,9.82,0,0,1,1.77-.26,41.66,41.66,0,0,1,12.3,1.18q1.32.3,2.58.66a8.29,8.29,0,1,1,6.29,10.29,42.38,42.38,0,0,1-9.36-.88,17.66,17.66,0,0,1-.64,4.43,24.68,24.68,0,0,1-1.64,4.35,3.9,3.9,0,0,0-2.37-2.2,5,5,0,0,0-6.09,3.52C464.64,267.22,465.84,270,468.44,270.87Z"/><polygon id="Leg-2" data-name="Leg" class="cls-30" points="422.06 372.67 452.44 477.35 466.72 555.94 481.06 555.94 466.75 372.67 422.06 372.67"/><path class="cls-29" d="M408.41,372.67c2.12,54.38,1.28,84,.81,89s-3.17,38-21.52,95.94h14.91c24.31-55.56,32.79-88.65,35.58-95.94s11-37,23-89Z"/><path id="Pant" class="cls-15" d="M421.41,372.67q11.85,54,41,172.49h21c1.55-81.06-5-134.41-16.46-172.49Z"/><path class="cls-13" d="M408.3,372.67c2.08,54.38-3.3,108-20,173.33h22.38c24.35-54.73,41.8-108,53.73-173.33Z"/><path id="Shoe-3" data-name="Shoe" class="cls-18" d="M385.57,568.37l.82-13.26q7.23,2.11,18.11-1.66,11.7,8.28,29.45,11.31h0a1.66,1.66,0,0,1,1.35,1.92,1,1,0,0,1,0,.17l-1.13,4H387.22Z"/><path class="cls-18" d="M463.52,568.37l.82-13.26q7.23,2.11,18.11-1.66,11.7,8.28,29.45,11.31h0a1.66,1.66,0,0,1,1.35,1.92,1,1,0,0,1,0,.17l-1.13,4H465.17Z"/><path id="Skin-3" data-name="Skin" class="cls-29" d="M481.39,326.05l31.09-10.52a71.1,71.1,0,0,1,16.23-10.59c1.5-.34,4-.26,1,3.4s-6,7.63-5.06,9.09,4.16.22,5.18,2.54q1,2.32-16,3.94l-23.92,15.22ZM523.48,347l13.66-4.65q4.36-9.49,8-8.92c2-.54-2.71,7.28,1,7.18s13.44-5,14.7-3.44c1.86,2.32-1.15,7.9-4,10.44-5.29,4.74-9.21,6-18.49,6.9q-7.27.7-16.37,5.11Z"/><path id="Sleeve" class="cls-31" d="M468.2,320.16a70.73,70.73,0,0,0,39.26-4.59l3.37,13.35c-11.45,7.95-26.55,13.48-38.47,11C463,338,460.15,325.75,468.2,320.16Z"/><path id="Clothes" class="cls-32" d="M478.07,342.36q15.1,6.74,54.66.05,5.87,20.73,3.74,28.73c-23.25,7.37-42.36,9.11-57.45,6.79-1.09,9-3.68,17.29-8.69,24.4-10.31,14.62-51.6-7.88-66.87-7.58-3.95-31.64,16.07-40.69,19.47-59.89,3.73-21,26.32-50.43,28.81-50l22.66,4C472.82,305.15,476,324,478.07,342.36Z"/></g></g></svg>