<svg xmlns="http://www.w3.org/2000/svg" viewBox="0 0 841.89 595.28"><defs><style>.cls-1{fill:#89c6cd;}.cls-1,.cls-12,.cls-13,.cls-14,.cls-15,.cls-16,.cls-17,.cls-18,.cls-19,.cls-2,.cls-20,.cls-21,.cls-3,.cls-4,.cls-8{fill-rule:evenodd;}.cls-2,.cls-9{fill:#dde3e9;}.cls-3{fill:#c2dee2;}.cls-4{fill:#69a1ac;}.cls-5{opacity:0.6;}.cls-13,.cls-6{fill:#f3f3f3;}.cls-7,.cls-8{fill:#fff;}.cls-10,.cls-12{fill:#c5cfd6;}.cls-11,.cls-14{fill:#b0bac5;}.cls-15{fill:#b28b68;}.cls-16,.cls-22{fill:#191947;}.cls-17{fill:#e4e4e4;}.cls-18{fill:#99765a;}.cls-19{fill:#db2a27;}.cls-20{fill:#ef4639;}.cls-21{fill:#2f3776;}.cls-23{fill:#222558;}</style></defs><title>titiktemu</title><g id="Production-Paper"><path id="Twisted-Leaf" class="cls-1" d="M753.2,166.46a7.19,7.19,0,0,0-2.39-.64,38.94,38.94,0,0,0-7.46-.7,138.41,138.41,0,0,0-23.08,2.08c-4.8.83-10.61,3.62-15.39,2.1-8.32-2.64-16.73-2.51-24.63,1.26-7.22,3.45-12.7,10-15.9,17.08a43.27,43.27,0,0,0-3,7.65c-.24.55-.46,1.09-.67,1.65-.58,1.57-1.1,3.17-1.59,4.77-.21.69-.73,2.2-.11,2.49a47.27,47.27,0,0,0-2.6,5.65c-2.12,5.65-4.44,11.85-5.19,17.84a27.56,27.56,0,0,0,0,6.67c.13,1.1.07,3.31.82,4.15,1.58,1.77,2.39-.71,2.21-1.89-1.36-9,1.27-17.47,4.38-25.93a53.19,53.19,0,0,1,9-15,37.91,37.91,0,0,1,10.33-9,160.82,160.82,0,0,1,15.73-7.8c3.5-1.58,7-3.13,10.61-4.5a11,11,0,0,1,2.94-1.09c1.88,0,4.54,1.38,6.35,1.9,6,1.69,12,3.86,18.17,4.73a23.36,23.36,0,0,0,11.36-1.39,10.22,10.22,0,0,0,1.78-1,26.14,26.14,0,0,0,7.61-4.3,31.52,31.52,0,0,0,3.56-3.84,2,2,0,0,0,.47-1.27c.24-.12.41-.27.44-.45.27-1.28-2.18-1.31-3.75-1.23"/><path id="Fill-16" class="cls-2" d="M128.25,273.67c-1.51,1.22-3,2.47-4.44,3.77-1.1,1-3,2.17-3.44,3.67s.89,3,1.91,4c5.42,5,11.52,8.35,19,8.91,11.56.87,21.62-2.08,31.65-7.89,7-4.08,11.71-10.12,12.73-18.26A88.16,88.16,0,0,1,209.07,282a61.16,61.16,0,0,1,9.05,9.7c1.73,2.29,3.41,4.62,5,7,.68,1.05,1.36,2.91,2.48,3.51a2,2,0,0,0,2.84-1.86c-.06-1.22-1.37-2.63-2-3.62-1-1.65-2.05-3.29-3.14-4.89-1.77-2.6-3.59-5.16-5.57-7.59a70.16,70.16,0,0,0-16-13.81c-11.3-7.38-23.69-12-37.43-12.42-8.45-.24-15.56,2.64-22.79,7a109.87,109.87,0,0,0-13.22,8.63"/><path id="Leaf" class="cls-3" d="M237.86,238c-8.81-9.07-17.64-18-27.48-26-5.8-4.7-11.91-9-17.9-13.44.7.6,1.37,1.22,2,1.86-1.86-1.27-4.31-2-6.29-3.16-2.21-1.31-4.32-2.8-6.39-4.31-4.05-2.95-8-5.95-12.18-8.74-4.63-3.11-9.43-6-14.14-9a128,128,0,0,0-12.32-7.4c-2.33-1.13-4.66-2.47-7-3.66-.79-.39-8.73-5.41-8.71-5.42.44-.33,4.44,1.55,5,1.8,1.81.74,3.54,1.62,5.27,2.5a23.11,23.11,0,0,1-2.11-5.94c-.13-.64-1.15-5.31-.63-5.7.26-.2,2.8,8.16,2.93,9a14.65,14.65,0,0,0,.3,2.22c.35,1,.33.69,1.09,1.25a45,45,0,0,0,4.75,2.54,33.88,33.88,0,0,0,4.84,2.77c4.59,2.23,9.24,5.65,13.6,8.5a32.65,32.65,0,0,1-2.65-6.75c-.15-.56-1.78-5.58-1.38-5.88s3.55,7.33,3.73,8.06c.34,1.34.41,2.84.84,4.15s1.93,2,3.25,2.79c4.86,3.09,9.55,6.37,14.16,9.8,5-8.95-.77-19.76-5.66-27.27a62.63,62.63,0,0,0-13.28-14.11c-6.69-5.4-14.34-9.72-22-13.67A86.29,86.29,0,0,0,111.07,126a92.51,92.51,0,0,0-15.88-.45,26.16,26.16,0,0,0-7.53,1.3,25.07,25.07,0,0,0-3.24,1.39c-.8.41-2.73.84-3.19,1.45-3.78,4.91-5.71,9.81-5.42,16a44.71,44.71,0,0,0,4.64,16.92,51.94,51.94,0,0,0,11.07,15.5,116.52,116.52,0,0,0,11.57,9.21c14.15,10.32,32.09,19.29,50.42,17a48.64,48.64,0,0,0,16.85-5.64,40.27,40.27,0,0,0,3.65-2.12c.79-.53,2.9-2.91,3.7-3,1.09-.11,3.44,2.1,4.46,2.78q11.67,7.69,22.76,16.17c7.88,6,15.38,12.38,22.66,19.08,3.09,2.85,6.17,5.7,9.18,8.65.69.68,2.41,3.2,3.67,3.32a1.14,1.14,0,0,0,1.23-1.36c-.2-1.29-2.91-3.22-3.81-4.15"/><path id="Fill-10" class="cls-4" d="M744,202.78a47.41,47.41,0,0,0-10.65-.62,66.16,66.16,0,0,0-48.84,23.17c-10.14,12-12.92,26.92-14.93,42-.19,1.5-.28,3-.39,4.49,0,.32-.06.61-.1.88a1.92,1.92,0,0,0-.73,2.42,100.17,100.17,0,0,0-4.47,11.71c-3.7,11.82-7.47,23.87-5.15,36.29a172.48,172.48,0,0,1,3-20.56c.08-.38.16-.77.25-1.15l0-.12a44.64,44.64,0,0,1,1.87-6l0-.07c.1-.26.2-.51.31-.77.22-.54.44-1.07.68-1.6.08-.18.16-.36.23-.54,1.12-2.73,1.59-5.8,2.58-8.62q.36-1,.75-1.92a1.17,1.17,0,0,0,0-.11c.7-1.71,1.48-3.4,2.31-5.07a6.52,6.52,0,0,0,1.07-1.93,11.7,11.7,0,0,0,.89-1.72l1.46-2.82,0,0c.48-.9,1-1.8,1.46-2.69l.33-.59c.17-.31.34-.63.52-.94,1.63-2.92,3.36-5.78,5.16-8.61.64-1,2.17-2.45,2.47-3.59,0,0,0-.08,0-.12a64.24,64.24,0,0,1,13.77-14.53c-.65.7-2,3.09-2.4,3.56-1.12,1.45-2.33,2.8-3.55,4.16a87.35,87.35,0,0,0-6.22,7.63,146.31,146.31,0,0,0-9.28,15.23.7.7,0,0,1-.08.1c-1.42,1.75-2.31,4.39-3.34,6.4,4-1.88,8.53-3.1,12.68-4.76a104.41,104.41,0,0,0,12.06-5.68,134.16,134.16,0,0,0,15.41-9.82,60.89,60.89,0,0,0,14.46-13.27c4.91-5.93,9.41-11.92,12.2-19.12a58.05,58.05,0,0,0,3.08-11c0-.16.06-.34.1-.52a34.58,34.58,0,0,0,1.72-4c.78-2.14,2.62-4.49-.83-5.25"/><path class="cls-1" d="M166,227.85a14,14,0,0,0-3.68-2.94c-.35-.19-3-1.45-3.18-1.17-.4.64,6.54,3.74,6.86,4.11m12.58-7.73s.92,1.62,1.17,2.1c.53,1,1,2.06,1.48,3.1a18.94,18.94,0,0,0-2.65-5.2m-64.34,12.71c-.89.29-2-.84-.8-1.11.93-.22.88-.28,1.3-1,.34-.6.55-1.35.84-2a23.8,23.8,0,0,1,2.23-3.85,30.69,30.69,0,0,1,6.75-6.71c4.5-3.29,9.53-6.29,14.87-7.8a59.29,59.29,0,0,1,26.68-.89c5.27,1,10.08,2.82,13.58,7.07a17.53,17.53,0,0,1,3.72,7.34c.16.71.13,1.51.33,2.21.3,1.07.16.79,1.42,1s2.75.46,4.12.69a102.16,102.16,0,0,1,10.72,2.3,27.21,27.21,0,0,1,3.38,1.21c.83.35,4.15,1.47,4.55,2.55.67,1.8-1.57,1-2.27.59s-1.24-.66-1.88-.95a30.56,30.56,0,0,0-5-1.78c-1.84-.49-3.73-.86-5.61-1.23s-3.51-.66-5.27-1L185,229c-.34-.05-.93-.34-.88.09a46.85,46.85,0,0,0-6.38-.45c-2.57-.13-5.15-.24-7.72-.16a54.73,54.73,0,0,0-5.57.43,27,27,0,0,0-3.2.63c-.58.15-2.88.46-3.2,1,.14-.22,2.67,0,3,0,1.29-.05,2.57-.18,3.85-.32a59.12,59.12,0,0,1,7.16-.38c0,.42-1.64,1.16-2,1.44a25.13,25.13,0,0,0-2.55,2.05,25.71,25.71,0,0,0-4.07,4.51c.29-.46,1.71-1.06,2.21-1.41a28.68,28.68,0,0,0,2.34-1.81c.69-.59,1.33-1.23,2-1.88s1.49-2,2.32-2.45c.05,0,.41.26.62.16s.46-.58.52-.6c.77-.3,2.24.07,3,.11,2.11.09,4.21.22,6.32.34.65,0,1.21-.11,1.45.37s-.22,1.86-.35,2.42a12.79,12.79,0,0,1-2.83,5.54,22.9,22.9,0,0,1-9.64,6.37c-14.19,5.14-29.28,7.21-43.46,1.85-5.87-2.21-14.71-6.17-13.65-14"/><g id="Background-Shape-2" class="cls-5"><path id="Background-Shape" class="cls-2" d="M763.69,475.28c9.64,65.32-224.38,107.93-425.81,78.19S44.05,407.62,140.16,345.74,754,410,763.69,475.28Z"/></g><g id="Mobile3"><rect id="Container" class="cls-6" x="200.97" y="47.12" width="159" height="302" rx="8"/><circle id="Touch" class="cls-7" cx="279.97" cy="315.12" r="15"/><g id="Camera"><circle id="Lens" class="cls-7" cx="266.97" cy="65.12" r="2"/><path id="Sensor" class="cls-8" d="M276,63.12h17a2,2,0,0,1,2,2h0a2,2,0,0,1-2,2H276a2,2,0,0,1-2-2h0A2,2,0,0,1,276,63.12Z"/></g><g id="Rows"><g id="Row"><rect id="Background" class="cls-7" x="214.97" y="75.12" width="131" height="54" rx="4"/><g id="Text"><rect id="Name" class="cls-9" x="253.97" y="91.32" width="73" height="8.1" rx="3"/><rect class="cls-9" x="253.97" y="104.82" width="49" height="8.1" rx="3"/></g><circle id="Avatar" class="cls-10" cx="235.97" cy="102.12" r="12"/></g><rect class="cls-7" x="214.97" y="137.12" width="131" height="42" rx="4"/><rect class="cls-9" x="253.97" y="149.72" width="73" height="6.3" rx="3"/><rect class="cls-9" x="253.97" y="160.22" width="49" height="6.3" rx="3"/><circle class="cls-10" cx="235.97" cy="158.12" r="12"/><rect class="cls-7" x="214.97" y="187.12" width="131" height="42" rx="4"/><rect class="cls-9" x="253.97" y="199.72" width="73" height="6.3" rx="3"/><rect class="cls-9" x="253.97" y="210.22" width="49" height="6.3" rx="3"/><circle class="cls-11" cx="235.97" cy="208.12" r="12"/><rect class="cls-7" x="214.97" y="237.12" width="131" height="42" rx="4"/><rect class="cls-9" x="253.97" y="249.72" width="73" height="6.3" rx="3"/><rect class="cls-9" x="253.97" y="260.22" width="49" height="6.3" rx="3"/><circle class="cls-10" cx="235.97" cy="258.12" r="12"/></g></g><g id="Group"><path class="cls-1" d="M231.11,291.12c-1.32,0-2.64,0-4,.1-1,0-2.55-.16-3.41.47s-.82,2-.69,2.94c.74,5,2.52,9.41,6.26,12.95,5.76,5.45,12.36,8.21,20.17,9.45,5.48.86,10.55-.34,14.59-4.24a61,61,0,0,1,6.31,17.65,42.38,42.38,0,0,1,.62,9.07c-.06,2-.17,3.93-.38,5.89-.09.85-.52,2.14-.19,3a1.35,1.35,0,0,0,2.3.23c.49-.67.4-2,.5-2.78.17-1.32.33-2.64.44-4,.18-2.15.31-4.3.3-6.45a48,48,0,0,0-2.56-14.27c-2.82-8.8-7.4-16.63-14.52-22.76-4.37-3.78-9.38-5.31-15.06-6.13a75.65,75.65,0,0,0-10.72-1.11"/><path id="Fill-18" class="cls-1" d="M251.55,326.12c-14.3,0-23.93,11.53-28.49,23.51-1.71,4.51-2.12,9.47-2.78,14.21-.21,1.52-.13,3.84-.75,5.19-.22.5-.74.67-.49,1.34a1.09,1.09,0,0,0,.88.74c.9.16,2.17-.82,2.94-1.2,6.4-3.21,10.6-8.17,14-14.24a60.71,60.71,0,0,0,5.54-11.8,40.42,40.42,0,0,0,1.48-7.79,27.23,27.23,0,0,0,.2-3.12,6.08,6.08,0,0,0-.83-2.47c4.77-1.81,10.16-2.3,15-.43a19.18,19.18,0,0,1,10.26,9.28,17.59,17.59,0,0,1,1.27,3.42,11.24,11.24,0,0,0,.57,2.47c.89,1.68,2.77.55,2.59-1a20.28,20.28,0,0,0-6.21-11.82,22.37,22.37,0,0,0-15.2-6.27"/></g><rect class="cls-9" x="266.97" y="73.12" width="159" height="302" rx="8"/><circle class="cls-7" cx="345.97" cy="341.12" r="15"/><circle class="cls-7" cx="332.97" cy="91.12" r="2"/><path class="cls-8" d="M342,89.12h17a2,2,0,0,1,2,2h0a2,2,0,0,1-2,2H342a2,2,0,0,1-2-2h0A2,2,0,0,1,342,89.12Z"/><rect class="cls-7" x="280.97" y="101.12" width="131" height="54" rx="4"/><g id="Text-Stuff"><rect id="Label" class="cls-9" x="289.97" y="117.32" width="73" height="8.1" rx="3"/><rect class="cls-9" x="289.97" y="130.82" width="49" height="8.1" rx="3"/></g><g id="Check"><circle class="cls-9" cx="397.97" cy="128.12" r="7"/><circle id="Indicator" class="cls-6" cx="397.97" cy="128.12" r="3"/></g><rect class="cls-7" x="280.97" y="163.12" width="131" height="42" rx="4"/><rect class="cls-9" x="319.97" y="175.72" width="73" height="6.3" rx="3"/><rect class="cls-9" x="319.97" y="186.22" width="49" height="6.3" rx="3"/><circle class="cls-10" cx="301.97" cy="184.12" r="12"/><rect class="cls-7" x="280.97" y="213.12" width="131" height="42" rx="4"/><rect class="cls-9" x="289.97" y="225.72" width="73" height="6.3" rx="3"/><rect class="cls-11" x="289.97" y="236.22" width="49" height="6.3" rx="3"/><circle class="cls-9" cx="397.97" cy="234.12" r="7"/><circle class="cls-6" cx="397.97" cy="234.12" r="3"/><rect class="cls-7" x="280.97" y="263.12" width="131" height="42" rx="4"/><rect class="cls-9" x="319.97" y="275.72" width="73" height="6.3" rx="3"/><rect class="cls-9" x="319.97" y="286.22" width="49" height="6.3" rx="3"/><circle class="cls-10" cx="301.97" cy="284.12" r="12"/><g id="Web"><rect class="cls-6" x="332.97" y="98.12" width="335" height="346" rx="8"/><rect class="cls-7" x="581.97" y="141.12" width="70" height="81" rx="8"/><g id="Profile-Info"><circle class="cls-9" cx="616.97" cy="172.12" r="16"/><path class="cls-2" d="M595,192.12h44a3,3,0,0,1,3,3h0a3,3,0,0,1-3,3H595a3,3,0,0,1-3-3h0A3,3,0,0,1,595,192.12Z"/><path class="cls-2" d="M603,202.12h28a3,3,0,0,1,3,3h0a3,3,0,0,1-3,3H603a3,3,0,0,1-3-3h0A3,3,0,0,1,603,202.12Z"/></g><path id="Header" class="cls-12" d="M341,98.12H660a8,8,0,0,1,8,8v19H333v-19A8,8,0,0,1,341,98.12Z"/><g id="Buttons"><circle id="buttons-2" data-name="buttons" class="cls-6" cx="345.97" cy="112.12" r="4"/><circle class="cls-6" cx="357.97" cy="112.12" r="4"/><circle class="cls-6" cx="369.97" cy="112.12" r="4"/></g><g id="Components"><rect class="cls-7" x="581.97" y="230.12" width="70" height="194" rx="8"/><rect id="Data" class="cls-9" x="599.97" y="248.12" width="34" height="26" rx="4"/><rect class="cls-11" x="599.97" y="282.12" width="34" height="25" rx="4"/><rect class="cls-9" x="599.97" y="315.12" width="34" height="25" rx="4"/><rect class="cls-9" x="599.97" y="381.12" width="34" height="25" rx="4"/><rect class="cls-10" x="599.97" y="348.12" width="34" height="25" rx="4"/></g><rect class="cls-7" x="348.97" y="142.12" width="225" height="47" rx="4"/><rect class="cls-9" x="357.97" y="156.22" width="167" height="7.05" rx="3"/><rect class="cls-9" x="357.97" y="167.97" width="112.1" height="7.05" rx="3"/><circle class="cls-9" cx="549.93" cy="165.62" r="7"/><circle class="cls-6" cx="549.93" cy="165.62" r="3"/><rect class="cls-7" x="348.97" y="197.12" width="225" height="39" rx="4"/><path class="cls-2" d="M360.9,208.82H522.05a2.93,2.93,0,0,1,2.92,2.93h0a2.92,2.92,0,0,1-2.92,2.92H360.9a2.92,2.92,0,0,1-2.93-2.92h0A2.93,2.93,0,0,1,360.9,208.82Z"/><path class="cls-2" d="M360.9,218.57H467.14a2.93,2.93,0,0,1,2.93,2.93h0a2.92,2.92,0,0,1-2.93,2.92H360.9A2.92,2.92,0,0,1,358,221.5h0A2.93,2.93,0,0,1,360.9,218.57Z"/><circle class="cls-9" cx="549.93" cy="216.62" r="7"/><circle class="cls-6" cx="549.93" cy="216.62" r="3"/><rect class="cls-7" x="348.97" y="244.12" width="225" height="39" rx="4"/><path class="cls-2" d="M360.9,255.82H522.05a2.93,2.93,0,0,1,2.92,2.93h0a2.92,2.92,0,0,1-2.92,2.92H360.9a2.92,2.92,0,0,1-2.93-2.92h0A2.93,2.93,0,0,1,360.9,255.82Z"/><path class="cls-2" d="M360.9,265.57H467.14a2.93,2.93,0,0,1,2.93,2.93h0a2.92,2.92,0,0,1-2.93,2.92H360.9A2.92,2.92,0,0,1,358,268.5h0A2.93,2.93,0,0,1,360.9,265.57Z"/><circle class="cls-9" cx="549.93" cy="263.62" r="7"/><circle class="cls-11" cx="549.93" cy="263.62" r="3"/><rect class="cls-7" x="348.97" y="385.12" width="225" height="39" rx="4"/><path class="cls-2" d="M360.9,396.82H522.05a2.93,2.93,0,0,1,2.92,2.93h0a2.92,2.92,0,0,1-2.92,2.92H360.9a2.92,2.92,0,0,1-2.93-2.92h0A2.93,2.93,0,0,1,360.9,396.82Z"/><path class="cls-2" d="M360.9,406.57H467.14a2.93,2.93,0,0,1,2.93,2.93h0a2.92,2.92,0,0,1-2.93,2.92H360.9A2.92,2.92,0,0,1,358,409.5h0A2.93,2.93,0,0,1,360.9,406.57Z"/><circle class="cls-9" cx="549.93" cy="404.62" r="7"/><circle class="cls-6" cx="549.93" cy="404.62" r="3"/><rect class="cls-7" x="348.97" y="338.12" width="225" height="39" rx="4"/><path class="cls-2" d="M360.9,349.82H522.05a2.93,2.93,0,0,1,2.92,2.93h0a2.92,2.92,0,0,1-2.92,2.92H360.9a2.92,2.92,0,0,1-2.93-2.92h0A2.93,2.93,0,0,1,360.9,349.82Z"/><path class="cls-2" d="M360.9,359.57H467.14a2.93,2.93,0,0,1,2.93,2.93h0a2.92,2.92,0,0,1-2.93,2.92H360.9A2.92,2.92,0,0,1,358,362.5h0A2.93,2.93,0,0,1,360.9,359.57Z"/><circle class="cls-9" cx="549.93" cy="357.62" r="7"/><circle class="cls-6" cx="549.93" cy="357.62" r="3"/><rect class="cls-7" x="348.97" y="291.12" width="225" height="39" rx="4"/><path class="cls-2" d="M360.9,302.82H522.05a2.93,2.93,0,0,1,2.92,2.93h0a2.92,2.92,0,0,1-2.92,2.92H360.9a2.92,2.92,0,0,1-2.93-2.92h0A2.93,2.93,0,0,1,360.9,302.82Z"/><path class="cls-2" d="M360.9,312.57H467.14a2.93,2.93,0,0,1,2.93,2.93h0a2.92,2.92,0,0,1-2.93,2.92H360.9A2.92,2.92,0,0,1,358,315.5h0A2.93,2.93,0,0,1,360.9,312.57Z"/><circle class="cls-9" cx="549.93" cy="310.62" r="7"/><circle class="cls-6" cx="549.93" cy="310.62" r="3"/></g><path id="Fill-1" class="cls-3" d="M751,268.5c-3.94-2.67-9.19-3.38-13.91-3.38-18.44,0-35.76,6.85-50.73,17a117.83,117.83,0,0,0-22,20.1,58.82,58.82,0,0,0-9.44,14,49,49,0,0,0-3.43,10.82,110.67,110.67,0,0,0-1.94,13.8c-.13,1.82-1.19,11.48,1.84,11.64a3.74,3.74,0,0,0,0,.67c-6.57,10.27-10.63,22.32-14.4,33.73a231.14,231.14,0,0,0-8.09,30.23,330.36,330.36,0,0,0-4.91,41c-.17,2.95-.28,5.9-.38,8.86-.08,2.52-.17,5-.25,7.56-.09,2.82-.59,6.07-.14,8.88.39,2.44,2.51,2.07,2.6-.36.11-2.94.09-5.88.22-8.82q.25-5.85.54-11.7A273.3,273.3,0,0,1,642,383.21a184.93,184.93,0,0,1,13.47-29.74,206.81,206.81,0,0,1,16.55-24.17c5.76-7.38,11.75-14.59,18.81-20.85a144.65,144.65,0,0,1,18.51-13.6c8.23-5.23,16.44-10.32,25.35-14.33,4.63-2.09,9.35-3.95,14-5.95.84-.36,1.74-.71,2.55-1.13,2.69-1.39,1.81-3.48-.34-4.94"/><path id="Fill-20" class="cls-1" d="M676.79,363.12a50.93,50.93,0,0,1,21,3.95,93.34,93.34,0,0,1,16.63,9.65c7.4,5.2,13.23,11.25,17.31,19.27,2.44,4.79,4.23,11.57,2.59,16.79-1.93,6.15-7.22,11.28-14.2,10.2-4.31-.67-8.26-3.53-11.54-6.21A43.76,43.76,0,0,1,699,405.4c-4.23-7-6.72-14.92-10.31-22.24-1.7-3.47-3.35-7-5.39-10.27a16.47,16.47,0,0,0-3.62-4.47c-.82-.65-4.28-1.78-3-3.23-19.39.25-36.56,15.14-40.29,33.58-.34,1.71-.61,3.45-.9,5.17-.18,1.1-.11,5.12-1.08,5.82-2.16,1.54-1.25-3.14-1.16-3.81.24-1.74.49-3.48.76-5.21a43.33,43.33,0,0,1,12.66-24.93c8-7.7,18.82-12.69,30.13-12.69"/><g id="Plant"><path id="Fill-19" class="cls-2" d="M137.91,339.86c18.67,31.32,40.41,61.64,53.46,95.88q-.78-6.06-1.7-12.1c-3.32-21.34-7.43-42.52-11.76-63.68-2.2-10.77-4.53-21.51-6.92-32.24-1.29-5.77-2.56-11.53-3.87-17.29-.32-1.4-.59-3.84-1-6.31,12.69,41.64,24.92,83.31,33.87,126q1.77,8.39,3,16.75c.28-1.27.55-2.54.86-3.81a246.06,246.06,0,0,1,15.52-44.51,135,135,0,0,1,10.82-19.65c2.61-3.86,8.76-8.45,11.14-12.41-13,23.86-17.71,53.72-25.22,79.66-1.83,6.33-3.68,12.65-5.49,19C222,442.36,239.54,423.7,264,415.61c-29.58,19.54-47.32,53.77-59.27,88.77,0,.42-.09.84-.13,1.25,3.52-6.68,8-12.72,14-16.95,12.85-9.05,27.11-6.41,39.58,1.35-9.79-6.22-27.47-.55-35.71,5.77-5.89,4.53-10.93,10.6-15.31,16.52-1,1.42-2.47,3.08-4,4.85a218.11,218.11,0,0,1-10.45,41c.8-3.88.22-10.1.44-13,0-.32,0-.63.07-.94-.74,3-1.46,5.9-2.15,8.78a120.14,120.14,0,0,0,2.7-17.06l.45-7.49c0-4.73-.24-9.49-.57-14.25-1.17-4.63-2.48-9-3.56-12.62a162.85,162.85,0,0,0-16.65-37.36,146.9,146.9,0,0,0-23-29.12c-4.78-4.72-9.78-9.21-14.72-13.77-1.78-1.64-5-5.69-7.73-7.8,20.08,11.07,40.75,23.05,55.4,40.88q-2.58-9.89-5.55-19.47C167.81,402.58,155.17,369.08,137.91,339.86Z"/><path id="Base" class="cls-12" d="M158,517.12c0,35.9,2.85,65,41,65s41-29.1,41-65"/></g><g id="Graph"><path id="Value" class="cls-2" d="M586,55.12h0a3,3,0,0,1,3,3v19a3,3,0,0,1-3,3h0a3,3,0,0,1-3-3v-19A3,3,0,0,1,586,55.12Z"/><path class="cls-2" d="M600,39.12h0a3,3,0,0,1,3,3v35a3,3,0,0,1-3,3h0a3,3,0,0,1-3-3v-35A3,3,0,0,1,600,39.12Z"/><path class="cls-2" d="M614,31.12h0a3,3,0,0,1,3,3v43a3,3,0,0,1-3,3h0a3,3,0,0,1-3-3v-43A3,3,0,0,1,614,31.12Z"/><path class="cls-2" d="M628,39.12h0a3,3,0,0,1,3,3v35a3,3,0,0,1-3,3h0a3,3,0,0,1-3-3v-35A3,3,0,0,1,628,39.12Z"/><path class="cls-12" d="M642,23.12h0a3,3,0,0,1,3,3v51a3,3,0,0,1-3,3h0a3,3,0,0,1-3-3v-51A3,3,0,0,1,642,23.12Z"/></g><g id="Pie-Chart"><path class="cls-13" d="M91,329.38a20.2,20.2,0,0,1,20-20.26v20.26L97.31,344.12A20.06,20.06,0,0,1,91,329.38Z"/><path class="cls-14" d="M110.44,329.12h20.2a20,20,0,0,1-5.49,13.67,20.37,20.37,0,0,1-14.71,6.33,20.62,20.62,0,0,1-13.8-5.44Z"/><path class="cls-12" d="M131,329.12a20.07,20.07,0,0,0-20-20v20Zm-30-20,8,18-18-8A18.42,18.42,0,0,1,101,309.12Z"/></g><g id="Chart"><path class="cls-13" d="M741.74,338.3a10.51,10.51,0,1,1-7.67-17.68v-19.5a30,30,0,1,0,0,60,29.68,29.68,0,0,0,21.9-9.49Z"/><path class="cls-14" d="M734,301.12v19.5a10.51,10.51,0,0,1,10.5,10.5H764A30.09,30.09,0,0,0,734,301.12Z"/><path class="cls-12" d="M744.07,331.12a10.64,10.64,0,0,1-4.1,8.4l12.27,15.6a30.41,30.41,0,0,0,11.73-24Z"/></g><path class="cls-13" d="M551,62.63a8.08,8.08,0,1,1-5.91-13.56v-15a23,23,0,1,0,0,46A22.87,22.87,0,0,0,562,72.84Z"/><path class="cls-14" d="M545,34.12v15a8.05,8.05,0,0,1,8,8h15A23.07,23.07,0,0,0,545,34.12Z"/><path class="cls-12" d="M553.05,57.12a8,8,0,0,1-3.08,6.3l9.2,11.7a22.8,22.8,0,0,0,8.8-18Z"/><g id="Image"><path id="Fill-35" class="cls-12" d="M187,80.11s0,0,0,0,0,0,0,0"/><path id="Fill-37" class="cls-12" d="M187,80.13h0s0,0,0,0"/><path id="Fill-39" class="cls-12" d="M187,80a.61.61,0,0,1,0,.12l0-.06c-.21.52-.08.18,0-.06"/><path id="Fill-41" class="cls-12" d="M187,80.08l0,0c-.06.12,0,0,0,0"/><path id="Fill-45" class="cls-12" d="M187,80.13h0"/><path id="Fill-47" class="cls-12" d="M187,80.14s.06-.09,0,0"/><path id="Fill-49" class="cls-12" d="M187,80.13h0"/><rect id="Photo-Background" class="cls-9" x="138.97" y="28.12" width="95" height="63" rx="4"/><g id="icons8-night_landscape" data-name="icons8-night landscape"><polygon id="Mountains" class="cls-14" points="174.97 46.13 146.97 91.13 202.97 91.13 174.97 46.13"/><polygon class="cls-12" points="202.47 58.13 177.97 91.13 226.97 91.13 202.47 58.13"/></g><circle id="Sun" class="cls-7" cx="212.97" cy="49.12" r="9"/></g><path class="cls-12" d="M664,507.11a0,0,0,0,0,0,0s0-.05,0,0"/><path class="cls-12" d="M664,507.13h0s0,0,0,0"/><path class="cls-12" d="M663.91,507s0,.08,0,.12a.14.14,0,0,0,0-.06c.21.52.08.18,0-.06"/><path class="cls-12" d="M664,507.08l0,.05c0,.12,0-.05,0-.05"/><path class="cls-12" d="M664,507.13h0"/><path class="cls-12" d="M664,507.14h0"/><path class="cls-12" d="M664,507.13h0"/><rect class="cls-9" x="592.97" y="430.12" width="142" height="94" rx="4"/><polygon class="cls-14" points="682.25 457.13 723.3 524.13 641.19 524.13 682.25 457.13"/><polygon class="cls-12" points="639.92 475.07 676.21 524.13 603.62 524.13 639.92 475.07"/><circle class="cls-7" cx="624.47" cy="461.62" r="13.5"/><g id="Head"><path class="cls-15" d="M631.15,270H610l3.58-25.32c-5.71,3.43-11.31,5.1-13.94,4.42-6.6-1.7-7.2-25.83-2.1-35.35s31.34-13.66,32.67,5.19c.45,6.54-2.29,12.38-6.35,17.15Z"/></g><path id="Hair" class="cls-16" d="M606.66,215c-9.29.14-10.38-1.52-10.38-7.14,1.5-1.07,6.8-2.88,12.73-3.39a15.38,15.38,0,0,1,10.06.74c4.27,1.21,7.87,3.82,9.47,8.69,5.77,10,1.39,20.32-4.51,23.86-1.57-1.86-2.94-3.67-4.16-5.39a5.29,5.29,0,0,0-3.7-9.07c-.21,0-.42,0-.63,0q-.46,15.39-2.09,20.28c-1.68,5.06-11.44,6.3-14.85,6.3s-2.75-3.65-2.75-5.58c0-1.18,3.5.35,3.5-1.62s-4.43-3.21-5.34-4.49c-1.11-1.54-1.48-3.63.19-3.63,2.28,0,6.7,3.31,11.91,3.31q5.21,0,6.42-16.91C610.7,218.28,609,216.2,606.66,215Z"/><polygon id="Leg" class="cls-4" points="601.68 371.8 576.92 566.45 593.91 566.45 617.21 483.86 649.15 371.8 601.68 371.8"/><path class="cls-1" d="M601.58,371.8c15.63,55.25,26,86.76,29.37,94.51s19.47,41.13,48.34,100.14H696.9q-34-92.27-35.18-100.14c-.78-5.25-3.3-36.75-4-94.51Z"/><path id="Shoe" class="cls-17" d="M689.66,582.31v-1.76l-11.45,1.76H644.74v-3.53q21.19-5.71,34.35-15h18.5l.88,18.5Z"/><path class="cls-17" d="M587.49,582.31v-1.76L576,582.31H542.57v-3.53q21.2-5.71,34.35-15h18.5l.88,18.5Z"/><path id="Skin" class="cls-18" d="M582.35,307.33,560.14,287q-17.57-4.83-16.06-7.08c1.5-2.24,4.63-.35,5.89-1.7s-1.14-6.06-3.61-10.44.17-4,1.68-3.37a75.58,75.58,0,0,1,15,14.07l30.57,16.74ZM545,322.82q-8.68-6.29-16.18-8.37c-9.54-2.66-13.4-4.69-18.06-10.63-2.49-3.18-4.61-9.57-2.24-11.65,1.61-1.4,10.92,5.52,14.74,6.31s.31-8.27,2.32-7.34q3.93.08,6.76,10.83l13.43,7.37Z"/><path id="Sleeve" class="cls-19" d="M600.53,311.42c-12.92.36-27.7-8.21-38.21-18.64l6-13.34a75.11,75.11,0,0,0,40.23,12C615.92,298.82,610.71,311.13,600.53,311.42Z"/><path id="Clothes" class="cls-20" d="M607.82,257.6h24.43c2.68,0,20.9,34.92,20.92,57.61,0,20.71,19.29,33.87,9.32,66.24-15.92-3.13-63.26,12.79-71.35-4.4-3.93-8.37-5.1-17.52-4.59-27.14-16.21-.35-35.88-5.7-58.84-17.69q-.75-8.76,9.21-29.37,40.14,14.29,57.19,10C599.68,294,606.47,274.93,607.82,257.6Z"/><g id="Head-2" data-name="Head"><path class="cls-15" d="M292.66,323.59c-4.06-4.76-6.81-10.61-6.35-17.16,1.32-18.87,27.59-14.72,32.7-5.19s4.5,33.68-2.1,35.38c-2.64.68-8.25-1-14-4.42l3.59,25.35H285.38Z"/></g><path id="hair-2" data-name="hair" class="cls-16" d="M310.65,290.86a27.42,27.42,0,0,0-8.86-1,15.13,15.13,0,0,0,1.08-7.7c-.31-2.54-1.45-4.7-2.49-7a9.61,9.61,0,0,0-1.85-2.88,6.31,6.31,0,0,0-3-1.61,8,8,0,0,0-3.44,0c-.5.1-1,.33-1.44.46s-.75-.18-1.12-.5a6.24,6.24,0,0,0-3.28-1.27,8.46,8.46,0,0,0-3.73.44,7.29,7.29,0,0,0-3.11,2,5.26,5.26,0,0,0-.93,1.43c-.09.21-.11.34-.32.42s-.44.08-.65.15a8.06,8.06,0,0,0-4.63,4.2,13.37,13.37,0,0,0-.73,5.47c.07,2.28,2.13,8.24,4.06,10.41a12.94,12.94,0,0,0,6.69,3.78,19.12,19.12,0,0,0-3.5,6.52,31.75,31.75,0,0,0-1.6,7.91,25.9,25.9,0,0,0,.4,7.81,8.43,8.43,0,0,0,3.78,5.5,16.78,16.78,0,0,0,2.91,1.37,19,19,0,0,0,3,1c2,.41,4.2.34,5.7-1.21a11.15,11.15,0,0,0,1.53-1.95c.14-.25.23-.41.05-.65a5.07,5.07,0,0,0-.8-.73,7.59,7.59,0,0,1-2.69-5c-.24-2.07.32-4.73,2.32-5.63,2.48-1.12,5.21.16,7.42,1.35a12.09,12.09,0,0,1,5.87-7.79c3.33-1.68,7.16-1.88,10.59-3.32a6.33,6.33,0,0,0,2.46-1.56,3.19,3.19,0,0,0,.7-1.16,1.84,1.84,0,0,0-.49-1.45C319.1,296.38,313.54,291.75,310.65,290.86Z"/><path id="Skin-2" data-name="Skin" class="cls-15" d="M390.2,446.69c6.33-8.58,22.16-2.9,22.15,4.21,0,18.66-17.06,107.26-18,112.86s-10.41,7.42-11,.43c-.88-11.12-2.52-49.67-.88-67.61.48-5.24,1-10.3,1.5-15.05q-13.43,24.12-40.84,68.19l-10.15-4.64q12-39.41,19.62-55.65c8.73-18.53,16.93-34.4,20.38-40C377.61,442.06,385,443,390.2,446.69Z"/><path id="Leg-Back" class="cls-4" d="M333.78,530.49l34.86-82.57c8.35-13.43,31.76,2.73,28.91,10.52-6.46,17.69-39.34,74.95-41.27,80.22Z"/><path id="Leg-Front" class="cls-1" d="M413.23,457.35c0,23.4-10.26,78.41-10.26,83.57l-24.85-.84q6.51-71.75,5.49-72.23c-1.53-.73-62.73,8.47-81.09,9.16-26.47,1-37.42-15.23-38.31-46.05h51.28q65.76,7.85,86.44,10.92C410.79,443.19,413.23,450.9,413.23,457.35Z"/><path id="shoe-2" data-name="shoe" class="cls-17" d="M331.68,542.49a18.86,18.86,0,0,0-2.86,5.38,43.2,43.2,0,0,0-.91,6.94l48.25,12q3.43-5.76-.5-7.26T369.15,557l-19.93-15.6a.88.88,0,0,0-1.24.16v0l-2.32,3.13a15.72,15.72,0,0,1-6.53.23,14,14,0,0,1-4.88-2.85h0a1.76,1.76,0,0,0-2.48.28Z"/><path class="cls-17" d="M382.09,551a18.92,18.92,0,0,0-1.48,5.91,44.08,44.08,0,0,0,.79,7h49.73q2-6.4-2.23-6.91c-2.79-.35-5.1-.65-6.94-.93l-23.12-10.3a.88.88,0,0,0-1.16.44v0l-1.49,3.6a15.89,15.89,0,0,1-6.28,1.8,14.18,14.18,0,0,1-5.43-1.58h0a1.76,1.76,0,0,0-2.34.87S382.1,551,382.09,551Z"/><path id="Base-2" data-name="Base" class="cls-21" d="M384.57,563.88h40.57a3.09,3.09,0,0,1,3.08,3.09h0a3.08,3.08,0,0,1-3.08,3.09H384.57a3.08,3.08,0,0,1-3.08-3.09h0A3.09,3.09,0,0,1,384.57,563.88Z"/><path id="Seat" class="cls-21" d="M261.57,436h94.35a8.81,8.81,0,0,1,8.81,8.82v43.2H256.28a3.53,3.53,0,0,1-3.53-3.52V444.85A8.82,8.82,0,0,1,261.57,436Z"/><path id="Wheel-Stuff" class="cls-21" d="M355.92,436h1.93a8.82,8.82,0,0,1,8.7,7.39L385.9,561.24h-9.43"/><circle id="Front-Wheel" class="cls-22" cx="382.93" cy="561.56" r="14.43"/><g id="Wheel"><path class="cls-16" d="M331.23,510.1a67,67,0,1,0-67,67A67,67,0,0,0,331.23,510.1Zm-121.69,0a54.67,54.67,0,1,1,54.67,54.67A54.67,54.67,0,0,1,209.54,510.1Z"/><rect class="cls-23" x="260.69" y="451.9" width="7.05" height="116.39"/><rect class="cls-23" x="206.02" y="506.57" width="116.39" height="7.05" rx="1.76" transform="translate(-283.31 336.23) rotate(-45)"/><rect class="cls-23" x="206.02" y="506.57" width="116.39" height="7.05" rx="1.76"/><rect class="cls-23" x="260.69" y="451.9" width="7.05" height="116.39" rx="1.76" transform="translate(-283.31 336.23) rotate(-45)"/></g><path class="cls-15" d="M362.21,354.43l26-15.29q18.19-1.08,17.2-3.59c-1-2.51-4.46-1.31-5.41-2.9s2.38-5.69,5.7-9.47.67-3.95-.94-3.64a75.49,75.49,0,0,0-17.64,10.64l-33.43,10ZM344.5,414.51l27.86,11.55q11.81,13.89,13.21,11.58c1.4-2.31-1.64-4.36-.94-6.07s6-1.53,11-1.14,3.56-1.85,2.35-2.95a75.91,75.91,0,0,0-19.12-7.68l-28.13-20.66Z"/><path id="Coat-Back" class="cls-19" d="M307,343.52c15.32,28.56,37.47,50.45,69.58,73.21l-12.16,13.71c-35.85-13.32-54.77-21.36-64.07-48.34-2.33-6.78-4-28.37-5.36-39.72Z"/><path id="Shirt" class="cls-13" d="M264.21,438.67h67.9Q309,368.32,308.54,342.1c0-.9-1.66-2.47-2.39-2.26q-8,2.25-17.1-1.69C273,364,267.39,395.91,264.21,438.67Z"/><path id="Coat-Front" class="cls-20" d="M294.85,338.19c19.46.16,51,3.72,87.45-8l3.6,18c-27.53,17.7-55.39,31.41-79.81,29.47,10.6,45.48,10.11,82.72-13.3,82.72-11.18,0-27.82-8.47-36-21.7C251.09,400,266,368.15,280,341.13a4.77,4.77,0,0,1,4.35-3h10.52Z"/></g></svg>