<svg xmlns="http://www.w3.org/2000/svg" viewBox="0 0 841.89 595.28"><defs><style>.cls-1{opacity:0.67;}.cls-2{fill:#f3f3f3;}.cls-11,.cls-12,.cls-13,.cls-14,.cls-15,.cls-16,.cls-17,.cls-18,.cls-19,.cls-2,.cls-20,.cls-21,.cls-4,.cls-5,.cls-6,.cls-7,.cls-8,.cls-9{fill-rule:evenodd;}.cls-3,.cls-6{opacity:0.5;}.cls-4{fill:#89c6cd;}.cls-5{fill:#69a1ac;}.cls-6,.cls-7{fill:#c2dee2;}.cls-6{isolation:isolate;}.cls-8{fill:#b28b68;}.cls-9{fill:#191947;}.cls-10,.cls-21{fill:#c5cfd6;}.cls-11{fill:#3c4ca0;}.cls-12{fill:#465caa;}.cls-13{fill:#e4e4e4;}.cls-14{fill:#065958;}.cls-15{fill:#dde3e9;}.cls-16{fill:teal;}.cls-17,.cls-20{fill:#010101;}.cls-17{fill-opacity:0.1;}.cls-18{fill:#2d2d2c;}.cls-19{fill:#8b91c7;}.cls-20{fill-opacity:0.2;}</style></defs><title>titiktemu</title><g id="Production-Course"><g class="cls-1"><path class="cls-2" d="M58.73,454.09C77,372,261.83,418.75,383,393.35s264.53-143.66,359.41-85.73-6.07,198-223.68,229.58-478.26-1-460-83.11Z"/><g class="cls-3"><path class="cls-4" d="M164.34,99.59c-1.32,1.32-.81,6-.84,7.74,0,2.7.13,5.37.35,8.07.15,1.8,1,19,3.38,17.67,1.34-.74.5-5.72.5-7.29,0-3.5-.15-7-.39-10.48a94.79,94.79,0,0,1-.23-9.68c0-.8.78-9.59-2.77-6"/><path class="cls-4" d="M221.87,97.47c-11.35.09-22.7.65-34,1-5.46.17-10.91.38-16.37.68-1.85.1-5.84-.49-7.39.5-3.43,2.19,2.11,2.71,3.59,2.65,22.44-.81,44.9-1.88,67.37-1.93,11,0,22,.29,33.06.22,4.22,0,8.88-1.85,10,3.06,1.2,5.53-.18,11.69-.56,17.26a97,97,0,0,0,0,11c.1,2.38-.18,5.06.25,7.39s2,3.59,3.49,1.08c.89-1.51.45-5.22.51-7,.08-2.35,0-4.69,0-7,0-5.72.81-11.42.7-17.15-.07-3.69-.26-10.38-4.92-11.27-5.12-1-11.43,0-16.67,0-13-.15-26-.58-39-.48"/><path class="cls-4" d="M190.6,133.28c-4.28,0-8.56,0-12.84.09-3.67.06-9.44-.7-12.86.61-2.34.9-3,3.51,0,4.21,3.23.75,8.09-.49,11.47-.55,16.94-.29,34-.68,50.94.39,15.85,1,32,2,47.87.91,1.34-.08,8.15-.36,5-2.91-1.81-1.49-9.16-.51-11.52-.58-8.31-.25-16.63-.31-24.93-.62s-16.36-1.23-24.57-1.46c-9.52-.27-19.07-.09-28.6-.09m-4.29-24.34c6.67.29,13.27,10,6.52,14.63-6.33,4.39-18.19-.42-14.67-8.92-.51,1.23.64-1.34.65-1.36a18.5,18.5,0,0,1,2.7-2.28,10.79,10.79,0,0,1,3.06-1.85c.75-.23.63.65,1.74-.22m-3.25-3.49c-3.12,1.22-4.54,2.59-6.69,5.08-1.48,1.72-3.37,2.63-3.36,5,0,.52.67,1.08.78,1.58.16.69,0,1.56.1,2.29,1.29,7.52,10.26,10.05,16.83,8.63,5.71-1.23,10-6.72,8.67-12.69s-10.25-12.22-16.33-9.84"/><path class="cls-4" d="M180.28,115.94c0,2.7,4.28,2.7,4.28,0s-4.28-2.79-4.28,0m5.35-.55a1.7,1.7,0,0,0,3.39,0c0-2.12-3.39-2.21-3.39,0m1.05,4.43c-1.09.42-2.47-.45-3.36.12-1.58,1,0,1.93.85,2.34,3.81,1.83,4.49-3.22,2.51-2.46m58.23-6h0m-16.6-2.43c-2.86.65-5.27,3.31-8.37,3-2.37-.28-4-2.57-6.33-2.9-3-.43-11.17,6.41-6.87,7.59,2.5.68,3.89-3.89,6.11-4.14,1.75-.19,4.13,2,5.94,2.26,3.39.57,5.71-1.29,8.68-2.49,3.23-1.31,5.07-.13,7.88,1.32,2.21,1.15,4.3,1.89,6.84,1.42,2.38-.44,5.37-2.89,7.76-2.64s4,2.69,6.44,2.92c1,.09,2.47.43,2.31-1.1-.14-1.23-1.51-1-2.37-1.47-2.2-1.15-4.27-3.18-6.93-3-2,.13-3.83,1.54-5.68,2.21-6,2.21-9.44-4.27-15.41-2.93"/><path class="cls-5" d="M233.36,150.35c-11.66.1-23.37.28-35,1.21-2.76.22-30.91,2.88-30.86,3.07.1.36,3.72.9,3.7,1q-.37-.9-1.68-.75c26.71,0,53.33-2.39,80.07-2,6.72.11,13.46.06,20.18.27,1.67.06,5.82,1.26,7.14.5,3.46-2-2.82-2.21-3.86-2.3-13.16-1.05-26.49-1.16-39.69-1M164,156c-1.74,1.75-.14,8-.07,10.41.1,3.41,0,6.85.32,10.26a69.15,69.15,0,0,0,1.89,11.82c.57,2.09,2.54,5.39,3.32,1.61.56-2.7-.29-6.28-.58-9a106.49,106.49,0,0,1-.51-11c0-3.22-.07-6.46-.34-9.67-.13-1.67-1-7.42-4-4.38"/><path class="cls-5" d="M207.91,188c-8.27.15-16.57.34-24.83.86-3.39.21-6.77.53-10.15.88-.69.08-8.31.39-4.9,3.2,1.53,1.27,7.86-.49,9.95-.67,3.51-.31,7-.51,10.54-.66,8.16-.34,16.35-.65,24.52-.51,14.92.26,29.75.38,44.67.05,2.12-.05,18.74.39,19.3-1.81.46-1.78-5.49-1-6.57-.93-4,.11-7.95.09-11.92.07-16.84-.09-33.78-.76-50.61-.48"/><path class="cls-5" d="M274.2,153.06c.26,7.37,1.52,14.73,1.92,22.13.18,3.38.4,6.75.56,10.13.06,1.09-.38,3.72.91,4.35,1.76.86,2-.88,2.33-2,1-3.39.31-7.78.23-11.26s-.09-6.75-.34-10.11-.95-6.81-1.27-10.23c-.13-1.45.34-3.86-1.2-4.76a2.11,2.11,0,0,0-3.14,1.8m-81.36,12.26.09.08-.09-.08m-7-2.18c2.63.75,4.78.47,7.29,2.38,2.07,1.58,4.21,3.9,4.89,6.46,1.6,5.91-3.8,9.15-8.86,9.22s-12.85-1.14-12.59-7.78c.21-5.1,3.93-10.08,9.27-10.28m.19-3.34c-6.8.34-12.29,8-12.23,14.4.07,7.8,8.9,9.8,15.17,9.86,7.08.06,14.14-4.83,12.24-12.79-1.52-6.38-8.64-11.81-15.18-11.47"/><path class="cls-5" d="M179.15,170.26c0,2.17,3.43,2.17,3.43,0s-3.43-2.24-3.43,0m7.2-.95c0,2.19,3.46,2.19,3.46,0s-3.46-2.26-3.46,0m-4,4.95c-2.24,2.23,5.61,6.15,7.46,3,1.53-2.55-1.78-1.7-3-1.84s-3.46-2.24-4.5-1.2m62.77-4.91h0m-29.49-3.63c-2.26.42-9.68,2.93-9.78,5.61-.19,4.88,7.08-.11,8.66-.76,4.29-1.74,6.55,1.82,10.86,2,3.74.17,7.18-3,10.71-2.66,3.69.4,5.47,4.33,9.73,2.24,2.26-1.1,2.2-2.8-.33-3-1.53-.1-2.58.53-4.18-.13-2.49-1-3.5-2.7-6.49-2.44-2.25.21-4.29,1.48-6.49,2-5,1.12-7.83-3.78-12.69-2.87m46.86,5.75h0m.58-2s.19.25,0,0m-2.6-1.55h0m.06,0c.5.3,4.54,3.06,1.61,3.72-1.49.33-2.73-2.67-1.61-3.72m-1.34-3.07c-6.48,3,.49,13.53,5.58,9.23,2.13-1.8,2.42-5.46.33-7.34-1.24-1.13-4.22-2.66-5.91-1.89"/><path class="cls-4" d="M198.41,206.46c-8.08,0-16.24-.17-24.31.31-1.36.08-6.54-.18-7.24,1.24-1.28,2.6,4,1.31,4.82,1.23,16.08-1.61,32.87-.68,49-.22,13.19.37,26.31.6,39.48,1.28q5.19.27,10.38.59c1.13.07,4,.81,4.21-1s-3.32-1.29-4.21-1.33Q260,208,249.44,207.41c-16.93-.95-34.08-1-51-.95"/><path class="cls-4" d="M166.61,209.34c-1.51,1.51-.81,7.24-.85,9.13-.07,3.31-.23,6.62-.3,9.94s0,6.94.23,10.39c.09,1.45,1.28,8.47,3.16,4.45.84-1.79,0-6.79,0-8.82,0-3.7.22-7.38.41-11.08.15-3.17.16-6.35.3-9.53,0-1,.16-7.59-2.94-4.48"/><path class="cls-4" d="M276.1,238.94c-7.87.8-15.86.42-23.76,1-6.8.51-13.6.72-20.43.87-15.45.32-30.92.64-46.33,1.93-3.51.29-7,.6-10.54.76-1.76.08-9.14-.72-9.69,1.13-.94,3.16,7,1.91,8.66,1.86,3.75-.1,7.48-.38,11.22-.66,15.71-1.2,31.47-1.55,47.21-2,8.57-.27,17.07-.9,25.61-1.47,4.26-.28,8.53-.29,12.78-.57,1.12-.07,5.06.07,5.86-.82.55-.62.69-2.12-.59-2"/><path class="cls-4" d="M273.43,209.88c.27,7.55.7,15.08.95,22.63.08,2.27-.61,6.33.66,8.33,2,3.22,3.61-.18,4-2.19,1.17-6.33-.09-13.31-.42-19.68-.13-2.43.63-7.83-.55-10s-4.73-1.86-4.63.92m-13.21,10.75c3,.81,3.46,7.37.06,7.85-5.06.72-2.85-6.5-.06-7.85m-.84-2.61c-.92,0-3-.28-3.61.47s0,1.95-.05,2.54c-.2,2.13-1.93,3.36-1.16,5.88a6.19,6.19,0,0,0,3.65,3.91c9.06,3.13,9-14.37,1.17-12.8m-74.66-2.61-.11-.91c4.91,2.32,8.82,6.63,7.19,12.42-1.25,4.42-5.74,6-9.93,4.89-4.64-1.2-6.85-5-5.6-9.72.57-2.16,2.35-5.07,4.63-5.77,1.07-.32,3.43.5,3.82-.91m-2.88-1.83a6.93,6.93,0,0,0-3.46,1.31,5.62,5.62,0,0,1,3.46-1.31m0-2.85c-3.07.09-5.08,2-6.9,4.18-.57.7-2.5,2.56-2.26,3.5.19.75.68,1.84,1.72,1-5.46,10.88,8.64,20.16,17.25,12.59,8-7.05.06-21.6-9.81-21.27"/><path class="cls-4" d="M179.09,220.83a1.13,1.13,0,0,0,2.25,0,1.13,1.13,0,0,0-2.25,0m3.84.25a1.14,1.14,0,0,0,2.28,0,1.14,1.14,0,0,0-2.28,0m1.74,5.17c-1.07.08-5-.28-5.67.66-1.15,1.56.69,1.61,1.58,1.78s4.34.07,4.83-.65.34-1.89-.74-1.79m47.13-4.06h0M217,221.11c-2.41.17-4.45,1.56-6.75,2.11-2.46.59-3.52-.49-5.75-1.2a5.43,5.43,0,0,0-5.85,1.14c-1.06.9-3.38,3-2.72,4.57,1.51,3.65,4.94-2.3,6.56-2.57,2.51-.44,4.75,1.76,7.66,1.14,2.62-.57,5-2.38,7.7-2.4,2.3,0,4.47,1.24,6.73,1.54,3.46.47,5.74-.76,8.94-1.67,2.77-.79,4.72.25,7.33,1.13,1.19.4,5.17,1.86,4.44-.79-.21-.74-5.45-2.08-6.27-2.34-2.86-.9-4.68-.55-7.41.49a11.31,11.31,0,0,1-6.64.82c-2.69-.53-5.14-2.19-8-2"/></g><g class="cls-3"><path class="cls-5" d="M347.2,80.05c.38-8.37.92-16.72,1.2-25.08q.21-6.22.35-12.44c0-.93.05-1.85.07-2.77.07-3.14-.3-3.4,2.86-3.68,14.08-1.24,28.22-1.65,42.32-2.78C411,32,428.1,31,445.15,30.59c7.58-.19,15.19-.57,22.77-.34,1.68.06,5-.38,5.64.92.29.57-.31,2.51-.39,3.16-.24,2-.46,4.07-.6,6.11a140.94,140.94,0,0,0,2,36.28c-5.47-3.09-12.39-5.75-18.77-5.22s-11.37,4.3-16.57,7.75c-2.95,2-3.94,2.48-6.88.58-2.53-1.63-4.92-3.5-7.31-5.33-3.69-2.83-7.17-5.9-10.74-8.86-6.57-5.46-15.63-13.22-24.71-10.93-6.48,1.63-12.47,5.19-18.1,8.68-8.36,5.19-15.93,11.53-24.3,16.66M459.91,26.54c-32.32,0-64.39,3.13-96.61,4.83-3.36.17-6.71.43-10.07.76-2.23.21-7.7-.69-9.16,1.22-1,1.27-.14,1.46,0,2.67a37.1,37.1,0,0,1,0,4.95c-.1,3.89-.22,7.78-.3,11.67-.34,14.71-.55,29.41,0,44.11.13,3.21,1.3,7.65.66,10.76-.46,2.26-2,3.63,1.56,4s7.8-.63,11.31-1,7.07-.7,10.61-1c15.38-1.27,30.92-1.08,46.34-1.5s31.13-.45,46.7-.46c6.51,0,14,.36,20.31-1.43,2.24-.63,2.6-.94,2.05-3.16-.1-.42-.78-.58-1-1.34a17.91,17.91,0,0,1-.19-3.37c-.21-3.52-.28-7-.45-10.57-.27-5.89-1.29-11.6-2-17.43A164.27,164.27,0,0,1,478.88,50c0-3.76.09-7.5.39-11.25.19-2.4,1.38-6,.78-8.23a3.3,3.3,0,0,0-1.95-2.48,6.13,6.13,0,0,0-2.08-.14,21.1,21.1,0,0,1-2.44-.45c-4.43-1-9.16-.92-13.67-.92"/><path class="cls-4" d="M442,42.54c0,2.34-.37,5.8.71,8,1.37,2.8,3.08,1.92,3.53-.7.26-1.51.26-6-.23-7.3-.68-1.89-4-3.18-4,0"/><path class="cls-4" d="M446,43.44c-2.19.08-8.6-.45-10.08,1.32-2.56,3,1.89,3.57,3.79,3.4,2.21-.2,9,.28,10.51-1.49,2.47-3-2.49-3.29-4.22-3.23m-85.31,78.23c9.66,1.68,6.66,16.42-2.49,13-3.18-1.19-7.88-4.63-6.12-8.68,1.32-3,5.61-4.61,8.61-4.33m-4-4.58c-6.29,1.06-10.58,7.86-8.43,13.8,2.08,5.72,10,9.91,15.78,7.86,5.55-2,8.32-9.36,6.45-14.76-2-5.65-8.33-7.82-13.8-6.9m58.79,6.31c-2.41.2-4.49,1.88-6.91,2.18-2.27.28-4.14-.49-6.26-1.11a13.7,13.7,0,0,0-7.53-.42c-2,.51-4,1.87-6.05,2-4.1.32-8.85-4.35-12,.93-1.53,2.53.69,4.16,3,3s1.22-1.67,4.18-.94c2.47.6,4.46.93,6.94.08,2.24-.76,4.21-2.17,6.64-2.33s4.46.93,6.75,1.4a14.73,14.73,0,0,0,7.94-.74c2.53-.83,3.53-1.29,6.08-.55,1.62.48,5.15,2,6.72.77,2.72-2.09-.92-2.4-2.36-2.69-2.3-.48-4.69-1.8-7.08-1.6M470.49,122l.06.05-.06-.05m-2.36-.49c3.51.23,7.31,6.63,2.66,6.85-3.28.16-6.94-5.44-2.66-6.85m-.49-5.24c-11.11,3.11-6,18.77,4.68,17,4.87-.82,6.52-6.46,4.91-10.64a9.18,9.18,0,0,0-3.65-4.33c-1.19-.76-4.58-2.37-5.94-2"/><path class="cls-5" d="M348.19,216.36a21.12,21.12,0,0,1-.17-4.2c-.09-2.42-.12-4.83-.21-7.25-.22-5.75-.37-11.53-.81-17.27-.43-5.49-1.5-10.81-1.53-16.33,0-3.74-1.06-13.21,2.22-15.75,5.62-3.28,3.4,8.3,3.31,10.31a119,119,0,0,0,.7,17.8c.56,5.49-.08,11-.29,16.46-.12,2.92-.18,5.83-.4,8.75a51.22,51.22,0,0,1-.44,7.18c1.23-.05,2.39,0,3.05,0,4.55-.14,9.11-.26,13.67-.43,17.52-.66,35.06-.36,52.59-1.19,16.57-.79,33.21-1,49.8-1.16a1.68,1.68,0,0,1,1.16,2.82c-.91,1.14-5.13.89-6.45,1-4.67.38-9.33.55-14,.59-9.87.09-19.7.52-29.55,1.08-17.51,1-35,.91-52.55,1.63q-6.37.26-12.76.41c-2.24.06-8.11,1.41-9.22-1.27-.79-1.89.3-2.77,1.9-3.16Zm97-68.16c5.3,0,10.58,0,15.87.34,2.35.14,4.7.27,7.05.37,1.35.06,4.46-.39,5.65.24,4.67,2.47-4.85,2.74-6,2.73-4.86-.09-9.71-.47-14.57-.58-17.86-.44-35.86.64-53.72,1.38-8.58.35-17.17.4-25.75.88-4.69.26-9.38.57-14.07.81-2.17.12-4.33.23-6.5.28-1.33,0-4.05.59-5.28.08-1.05-.42-1.9-1-1.33-2.3s3.33-.79,4.48-.81c4.13-.08,8.26-.31,12.39-.56,9.37-.58,18.72-1.25,28.11-1.41,17.9-.3,35.77-1.29,53.68-1.45Zm24.62,6.1c0-2.46,2.94-3,4.25-1.28s.44,6.43.47,8.34c.1,6.29.7,12.55,1.26,18.81s1,12.43,1.39,18.65c.21,2.88,2.41,14.36-.8,16-4.1,2.13-3.32-8.75-3.44-10.73q-.54-9.58-1.41-19.15c-.93-10.29-1.73-20.35-1.72-30.69Z"/><path class="cls-4" d="M415.62,183.85q8.43,3,16.77,6.24c3,1.15,5.94,2.33,8.92,3.5,1.48.58,7.67,2,8,3.54.5,2.1-6.1-.48-7.15-.82-3-.94-5.89-2-8.82-3.06-6.55-2.36-13.07-4.8-19.65-7.08l-1.84-.64Q401.4,190.23,391,195q-5.58,2.6-11.12,5.28c-2.73,1.33-7.69,5.11-10.71,5-1.14,0-1.91-.27-2-1.65-.15-1.77,2.7-2.49,3.85-3.07q5.92-3,11.91-5.8c7.91-3.77,15.89-7.39,23.91-11l.13-.06q-6.66-2.25-13.36-4.41c-2.56-.82-20.45-5.23-19.8-7.61.73-2.65,16.58,3.61,19,4.39q9,2.87,17.94,5.94c14.29-6.42,28.73-13.26,43.64-17.93.94-.3,1.53.67,1.32,1.48-.29,1.09-3.63,2-4.56,2.38-3.67,1.64-7.36,3.24-11,4.88-8,3.57-16,7.11-24,10.69l-.47.21Zm-52.86,45a7.22,7.22,0,0,1,5.83,7.82c-.54,5-5.48,7.23-10,6.59-5.18-.74-6.28-5.12-3.76-9.33a6,6,0,0,1,2.2-2.54c.7-.34,1.58,0,2.14-.32,2-1,.78-2.47,3.64-2.22m-1.66-3.24c-4.46.57-12.7,5.73-12.29,10.9a1.51,1.51,0,0,0,1.64.73,7.91,7.91,0,0,0,.17,3.32A7.1,7.1,0,0,0,353,244a11.26,11.26,0,0,0,8.42,2c5.42-.62,9.7-4.33,10-10s-4.51-11.27-10.34-10.53m21.6,6.72c-2,1.06-5.17,2.69-6.34,4.7s0,4.46,2.65,3.45c2.08-.8,3.4-3.34,5.61-4.15,1.95-.72,2.73-.35,4.8.36s4,1.45,6.28,1.27c2.89-.23,5.39-1.9,8.22-2.28,2.38-.32,4.34.6,6.62,1,2.64.43,4.37-.57,6.85-1.09,1.68-.36,4.65,1.09,5.87.55,2.76-1.22-.16-2.7-1.69-3.19-2.57-.83-4.15-.1-6.6.59-2.66.74-3.81.18-6.35-.5-5.14-1.38-9.11,2-14,1.35-4.52-.56-7.21-4.53-11.94-2m84.06-2.47c4.95,4.64-.61,11.24-6.07,7.53-1.92-1.3-1.95-3.4-.46-5.27,1.37-1.72,4.37-2.39,6.53-2.26Zm-1.84-3.75c-4.62.9-9,3-9.4,8.36s4.93,7.62,9.42,7.28c10.07-.77,9.34-17.45,0-15.64Z"/></g><path class="cls-6" d="M601.18,47.35c-5.53.09-19.18,1.85-21.21,7.56-1.54,4.34,3,3.38,5.49,1.81a24.75,24.75,0,0,1,10.34-4.06c15.66-2.48,30.71,6.4,46.22,7.52,5.88.42,13,.7,18.58-1,4-1.19,4.51-3.77,0-4.16-3.88-.33-8.17.72-12.14.69-16.43-.12-31-8.67-47.24-8.4"/><g class="cls-3"><path class="cls-4" d="M118.19,292.45q-10.62.12-21.21.78c-6.71.43-14,.11-20.61,1.41-1.87.37-4.4,2.08-1.91,4,1.75,1.32,8.17-.2,10.26-.33,7.71-.47,15.42-1,23.14-1.31,7.31-.26,14.62-.35,21.93-.43,1.12,0,3-.37,4.08,0,1.6.46,1.22.59,1.34,2.62.21,3.67.16,7.36.08,11s-.2,7.11-.19,10.67c0,2.54-.8,7.59.47,9.8,1.84,3.17,3.74-.28,3.88-2.39.26-4,.14-8.12.14-12.16,0-3.79,0-7.58-.1-11.37-.1-2.74.29-7.52-1.18-10s-5.12-2-7.76-2.11c-4.12-.19-8.24-.18-12.36-.13"/><path class="cls-4" d="M73.17,297c0,7.13-.81,14.21-1,21.32-.11,3.28-.33,6.87.5,10.08s3.49,3.95,3.8.33c.62-7.34.47-14.94.95-22.33.17-2.61,1.27-7.39.24-9.83-.91-2.16-4.45-2.57-4.45.43"/><path class="cls-4" d="M139.52,328.43c-12.29,1.63-25.13,1-37.51,1.29-5.94.12-11.87.13-17.81.19-2.07,0-7.33-.76-9.13.4-2.85,1.86.25,3.29,2.14,3.33,11.71.25,23.56-.29,35.28-.67,5.26-.17,10.54-.26,15.79-.7a56.9,56.9,0,0,0,9.9-1.41c.67-.19,2.13-.15,2.28-1.06.09-.57-.08-1.49-.94-1.37m-51.1,10.36c-3.41,0-13.7-1.57-15.12,1.76-1.88,4.44,5.47,3.41,7.45,3.36,4.5-.12,9-.13,13.48-.13s8.82,0,13.23-.13c1.27,0,4.25.5,5-1a1.93,1.93,0,0,0-.91-2.71c-2.48-1.49-8.92-.62-11.82-.76-3.76-.17-7.52-.35-11.29-.35m41.55.82c-1.95.12-5.9-.69-7.65.21-2,1-1.28,2.6.43,3.3,1.19.48,6.06.23,7.22-.33s2.57-3.34,0-3.18m21.4-41.89c-2.09.57-1.46,12.41-1.51,14.28-.15,5.14-.72,11.61,1,16.56,1.09,3.15,3.18,2.72,2.83-.6-.32-2.91-.85-5.8-1.08-8.73-.53-6.64-1.25-13.72-.75-20.37.21.39,2.19,4,2.65,3.7-.14.08-2.28-5.06-3.12-4.84"/><path class="cls-4" d="M174.81,293.36c-4.22.07-8.43.14-12.65.26-3.35.09-8.62-.46-11.7.95-3.66,1.68-1.92,5.42,1.52,5.5,3,.07,6.28-.61,9.35-.72,8.3-.28,16.6-.35,24.9-.42,7.5-.06,15.32.74,22.76-.39,1.1,9.8-1.88,19.63-.87,29.54.16,1.54.09,3.71,2,4.06,2.47.44,2.57-2,2.67-3.76.26-5,.12-10,.48-15,.34-4.64,1-9.39.45-14-.7-5.73-3.44-5.27-8.29-5.51-10.24-.5-20.42-.6-30.67-.45"/><path class="cls-4" d="M160.68,328.14c-2.15.06-5.72-.6-7.1,1.46s.27,4,2.35,4.45c2.47.52,5.68-.19,8.24-.2s5.33,0,8,0c11.43.05,22.91.22,34.33-.25,1.59-.07,6.12.47,7.22-1.06,1-1.36.3-2.58-1-3.27-2.12-1.13-6.47-.7-8.82-.79-2.91-.11-5.82-.15-8.73-.19-11.48-.18-23-.46-34.5-.18m9.66,9.92c-4.27.07-8.84-.12-13.07.53-3.72.57-4.18,4.17-.18,4.59,3.69.39,8.15-.33,11.85-.57,1.32-.09,2.85,0,3.48-1.42a2.33,2.33,0,0,0-2.08-3.13m32.34.38c-2.29.05-9-.93-10.08,1.68-1.89,4.34,7.14,2.69,8.87,2.63,2.18-.08,10.69,1.19,10.69-2.28s-7.39-2.09-9.48-2"/><path class="cls-5" d="M72.8,360c0,7.89-.48,15.86.24,23.74.3,3.26.24,9.5,2.13,12.26,1.34,2,3.2,1.82,3.93-.53.49-1.57-.29-4.72-.38-6.4s-.18-3.23-.26-4.85c-.19-4.16-.17-8.32-.12-12.49,0-3.57.91-8.3.1-11.73-.75-3.21-5.64-3.95-5.64,0"/><path class="cls-5" d="M152.17,353.06c-13.7.34-27.43,0-41.12.71-6.75.34-13.48,1.07-20.2,1.8-3.3.37-6.59.74-9.89,1.14-1,.12-9.25.44-6.15,3.59,1.36,1.37,5.68-.07,7.39-.27,3.3-.39,6.62-.73,9.93-1.08,6.3-.67,12.61-1.3,18.94-1.65,14.91-.82,29.88-.58,44.8-1.13,4-.14,8.06-.25,12.1-.09,1.06,0,8.85.43,5.47-2.44-1.6-1.36-7.63-.66-9.63-.7-3.88-.08-7.76,0-11.64.12"/><path class="cls-5" d="M173.51,394.72h0c-.75,1.1-3.51.79-4.71.88-3.68.25-7.29.67-10.93,1.21a175,175,0,0,1-21.8,1.94c-14.51.36-29.08,0-43.58,1A80.15,80.15,0,0,0,83,401c-2.26.44-6.6,1.91-6.87-1.81-.31-4.49,11-4.48,14.17-4.78,13.82-1.29,27.87-1,41.74-.82,6.71.09,13.4.29,20.1-.12s13.62-.3,20.26-1c-.85-3.31-.73-7.46-1-10.86-.62-8.7-.45-17.43-.85-26.15-.17-3.84,5.06-4.42,6.61-1.31s.55,9.37.65,12.85c.23,8.05,1.73,17.07.15,25-.55,2.77-2.89,4.23-4.44,2.72Z"/><path class="cls-7" d="M181.93,358.23c-1.85.26-3.39,1.84-2.57,3.85,1,2.53,4.14,1.54,6.19,1.38,6.51-.51,13.31.51,19.74-.26,1.75-.21,4.3-1.17,2.72-3.53-1.18-1.77-5.5-1.46-7.33-1.63a98.71,98.71,0,0,0-18.75.19m11,11c-2.53.17-8.4,0-9.47,2.91-1.9,5.15,5.57,3.34,7.85,3,2.64-.34,8.87.57,10.28-2,2.52-4.58-6.45-4.11-8.66-4m-6.49,11.31a3.3,3.3,0,0,0,0,4.53c1.47,1.47,4.66,1.16,6.59,1.27,2.69.15,10.42,1.58,11.76-1.59,1.8-4.28-5.2-4.19-7.5-4.43-2.66-.28-8.65-2-10.85.22"/><path class="cls-4" d="M92.09,307.39c0,4.6,7.18,4.6,7.18,0s-7.18-4.64-7.18,0m13.62.06c0,5.25,8.18,5.24,8.18,0s-8.18-5.29-8.18,0m-8.24,7c-4,1.1-.31,4.47,1.53,5.24,2.94,1.22,6.94,2.12,9.88.29,1.16-.73,2.11-1.7,1.25-3.12s-2.15-.83-3.54-.69a10.91,10.91,0,0,1-4.88-.42c-1.27-.42-2.86-1.68-4.24-1.3m72.1-6.75c0,3.11,4.83,3.11,4.83,0s-4.83-3.1-4.83,0m10.68.47c0,3.46,5.36,3.46,5.36,0s-5.36-3.45-5.36,0m-.4,7.5c-2.82.36-11,1.19-11.42,4.66-.7,5.36,8.22,1,10.26.6a30,30,0,0,1,7.51-.29c1.42.06,3.31.29,3.16-1.88-.24-3.56-7.05-3.41-9.51-3.09"/><path class="cls-5" d="M109,365.05c-2,.55-4.71,4.08-3.31,6.24,2.31,3.54,3.32-1.9,4.28-2.42,1.76-.95,3.18,2.53,5,.7,2.89-2.88-4.17-5-6-4.52m23.4-2.62c-2.42,0-7.54,3.46-7.9,6a2.51,2.51,0,0,0,2.4,3c2.21,0,2.91-2.85,4.83-3.45s1.76.85,3.54,1.62c1.3.57,2.94.33,3.39-1.28.85-3-3.78-5.89-6.26-5.85m-18.54,14.5c-3.87,2.27,2.5,7.13,4.71,7.74,3.33.92,10-.79,10.84-4.87.31-1.62-.7-3.09-2.49-2.8-1.47.24-2.42,2.09-3.78,2.75a4.23,4.23,0,0,1-5-.51c-1.27-1.1-2-3.64-4.23-2.31"/><path class="cls-7" d="M116.69,410.47c-3.46.73-7,.24-10.46.93s-5.66,2.05-9,.7l-.46-.2c-2.55-1.09-5.22-1.42-7.89.33-1.58,1-6.38,4.62-5.8,6.81,1.25,4.73,6.65-2.7,8-3.42,2.62-1.38,4.42.38,7.12.88,3.23.6,5.84-1.11,8.88-1.79a111.12,111.12,0,0,1,11.2-1.5c1.43-.17,6.86,1,7.35-.82.84-3.06-7.65-2.21-9-1.92m25,9.54c.23.17,0,0,0,0m9.7-9.73c3-.3,12.44-2.42,14.38.64,1.27,2-.74,9.36-2.66,10.31-1.53.76-5.11-.08-6.79-.14-3.13-.11-6.27-.16-9.4-.35-1-.07-4.42.12-5.24-.81-1-1.09-.93-6.94-1.16-8.39,2.72.89,8-1,10.87-1.26m6.32-3c-3.79.16-7.59.45-11.35,1-2.1.28-4.23,1-6.17,1.39-.62.12-1.64-.2-2.4.17-2.24,1.08-.28,8.4.26,10.35.83,3,2.92,3.49,5.84,3.77a107.8,107.8,0,0,0,11.65.21c3.73-.05,8.75.78,10.84-3,1.35-2.42,2.8-8,1.64-10.74-1.52-3.54-7.19-3.28-10.31-3.15"/><path class="cls-4" d="M200.16,422h0m.83-1c-.06.09-.35.4,0,0m-9.05-.28,5-.93c-1.58,2.22-3.25,1.3-6,1.11l.94-.18m-8-.78,1.28-.43a1.69,1.69,0,0,0,.2.91l-2.17-.25L184,420m-3.69-2.73c0-.59.85-.19,1.35-.22-1,.85-1.42.92-1.35.22m13.22-6.61q.19-.24.51,0c-.23.07-1.12.45-.51,0m8.58-1s.49.65,0,0m-.24-.21h0m-1.08-.12c1.76.29,1.63,2.35,0,0m-20.6-.14c-.35.29-.23,0,0,0m6.71-4.38c-3,.17-8.44,0-10.93,1.58-3.24,2.07-1.53,9.2-1.24,12.32.42,4.62,2.6,5.94,6.95,6.42a114.88,114.88,0,0,0,15.74.55c4.69-.12,7.37-1.74,8.23-6.69a36.31,36.31,0,0,0,.91-5.3c0-1-.51-1.46-.7-2.32-1.08-4.87-2.89-5.45-7.88-5.66-3.67-.15-7.48-1.09-11.08-.9"/></g><g class="cls-3"><path class="cls-4" d="M412.11,288.83c7.57.16,16.15,4.35,15,13.22a14.44,14.44,0,0,1-13,12.24c-7,.48-14.41-4.89-15.36-12-1.07-8,6-13.59,13.43-13.43m-3.71-3.61c-3.07.45-6,2.07-8.71,3.51-1,.55-6.26,3.91-2.15,4.75-9.89,15.93,13.37,30.73,26.44,20.38,5.87-4.66,9-13.47,5.17-20.37-3.93-7.14-13.23-9.4-20.75-8.27"/><path class="cls-4" d="M431.9,304.13c8.84-1.07,18-.58,26.85-.32,2.22.06,4.44.12,6.67.16,1.41,0,4.47.7,5.7,0,5.05-2.71-4.86-4-6.26-4.14a306.4,306.4,0,0,0-31.35-.65c-2.62.11-3.18,5.09-1.61,4.91"/><path class="cls-7" d="M471.69,348.09c.08-9.27.41-18.6,1.12-27.84.29-3.76.64-7.52.93-11.29.14-1.77.77-4.25-.28-5.81a3.18,3.18,0,0,0-4.85-.52c-1.7,2.2-1.2,5.9-1.41,8.56-.33,4.09-.72,8.18-.92,12.28a189.5,189.5,0,0,0,.18,23.95,72.43,72.43,0,0,0,1.82,11c.39,1.66,3.54,9.06,2.88,10.07-1,1.59-8.6,1-10.25,1-4.22.12-8.44.19-12.66.27-3.61.07-7.23.12-10.84.15-1.43,0-9.86-.24-8,1.89-20.92,1.45-42.23-1-63-1.81-1.05-.05-2.77-.34-4.35-.43a14.24,14.24,0,0,1-.39-1.93c-.27-3.34-.34-6.69-.64-10-.54-6.11-1.59-12.16-2.22-18.26s-.56-12.2-.92-18.31c-.06-1.05-.21-9.62-2.37-11.7a9.69,9.69,0,0,0,3.63.36c7.71-.62,15.36-2,23-3.11,2.18-.33,7.14-.1,9-1.19,1.57-.95,2.19-4.26-.54-4-7.62.82-15.2,2.09-22.77,3.34-2,.33-4,.69-6.05,1.05-1.35.24-4.91.23-5.95,1-1.27,1-1.41,1.65-1,2.1-.59-.16-1.31.09-2.17,1-1.63,2.11-.1,7.33.1,9.81.23,3,.34,6,.48,8.95a145.63,145.63,0,0,0,1.8,17.18c1,6.39,1.92,12.81,3,19.19a43.22,43.22,0,0,0,1.07,4.9c-2.81,1.44-.9,3.72,1.33,4.13h0c.7,1.69,1.67,3.27,2.43,1a2,2,0,0,0,.09-.63c5.76.66,12.1.25,17.77.48,12.28.5,24.64,1.26,36.94.88a145.27,145.27,0,0,0,14.58-1.24c2.83-.38,5.67-.83,8.45-1.46.2-.05.5-.1.85-.15h.17q6.39-.09,12.78-.35c3.58-.15,7.17-.23,10.73-.56,2.21-.21,6.89-.17,8.25-2.4,1.23-2-.83-7.24-1.13-9.51a90.18,90.18,0,0,1-.68-12.07"/><path class="cls-4" d="M428.51,321.33c-3.41.29-6.56,1.89-10,1.91-2.88,0-5.72-.84-8.62-.72-3.4.15-5.28,2.35-8.26,3.09-2.37.59-3.86-1.23-5.95-2-2.63-1-4.58-.5-6.84,1-1.66,1.13-5.53,3.66-5.5,5.94.09,6.91,8.15-2.64,9.77-2.75,2.16-.16,4.58,2.3,6.87,2.45,3,.18,5-1.78,7.78-2.49s5.89.16,8.72.44c3.24.31,6.07-.41,9.2-1.18a18.54,18.54,0,0,1,8.7-.08c2.08.42,7.26,2.89,8.17-.28,1.24-4.32-11.66-5.54-14-5.34m1,13.18c-7,.68-14,1.27-21,1.46-3,.08-14.7-1.22-13.67,2.64.89,3.31,16.77,1.22,20,1,3.57-.28,7.13-.66,10.69-1.11,1.26-.16,4.3,0,5.19-1.05s.43-3.08-1.21-2.91m-48.13,17.57h0m1.47,0c1.74-.06,1.36-1,3.1-.5.8.22.88-.1,1.5.66,1.21,1.49.07,4.74-1.12,5.95-4.42,4.45-9.72-5.91-3.48-6.11m0-4.37c-12.1.4-7,19.09,3.49,15.28,4.35-1.58,7.08-8.68,4.52-12.66-1.24-1.94-2.83-2.29-4.91-2.42-.48,0-1.09.67-1.4.64-.71-.08-.65-.88-1.7-.84m28.92,5c-.21-.07,3.82,1.1,3.38.64.94,1-.32,3.3-1.39,3.71-2.58,1-4-3-2-4.35m1.8-5.07c-3.79.54-6.72,2.11-7.23,6.33-.48,3.88,2.15,7.82,6.29,7.9,9,.16,9.31-15.4.94-14.23m41.22,5.24c.53,6.9-6.63.58,0,0m-3.07-7.39a2.09,2.09,0,0,0,.85,2.83c-8.44,1.78-6.53,14.49,2.06,12.61,4.37-.95,5.18-5.55,4.53-9.34-.31-1.8-4.81-10.59-7.44-6.1"/></g><path class="cls-6" d="M491.36,355.7c-3.36.52-11.3,3.76-11.23,7.24.11,5.42,6.86-.51,8.36-1.3,8.06-4.29,18.5,1.26,26.89,2.45,3.85.54,11.37,1.54,14.77-.72,6.05-4-7.93-3-9.71-3.16-9.68-.87-19.31-6-29.08-4.51"/><g class="cls-3"><path class="cls-7" d="M665.19,324.13c0,4.77-.24,9.64.64,14.35.26,1.43.47,4.16,2,4.9a2.29,2.29,0,0,0,3.35-1.64c.44-1.8-.52-4.5-.62-6.39-.14-2.59-.14-5.18-.15-7.77,0-1.87.62-4.87-1.59-5.83a2.65,2.65,0,0,0-3.61,2.38"/><path class="cls-7" d="M740.58,316.59c-15.8,1.59-31.83,1.92-47.68,2.74-7.33.39-16.19-.1-23.1,2.74-1.28.52-5.87,3.46-2.14,4.65,1.16.37,2.34-.88,3.29-1.3a21.38,21.38,0,0,1,5.13-1.19c14.41-2.31,29.48-1.91,44-3,3.73-.27,7.47-.56,11.19-.93,2.66-.26,8.25-2.17,10.7-1.19,4.2,1.67,4.1,12.56,4.18,16.3,0,1.93-1.84,8.88,1.9,8.18,3-.56,1.91-7.78,1.67-9.76-.61-5.18-1.65-18-9.17-17.25"/><path class="cls-4" d="M746.41,343.35c-13.73,1.24-27.77,0-41.55.51-7.22.26-14.44.66-21.66.9-3.12.1-6.25.11-9.38.13-1.49,0-8.3.92-4.09,3.88,1.87,1.31,7.8.26,9.94.23,3.22,0,6.43-.17,9.64-.3,7.43-.29,14.86-.69,22.3-.89,7.11-.19,14.23-.24,21.35-.43a88,88,0,0,0,10.64-.72c.79-.12,3.36-.21,3.91-1.09s.15-2.34-1.1-2.22"/><path class="cls-7" d="M679,333h0m5.94-1.8h0m-.28-.05c3.21,3.26-1.72,7.16-4.72,4-3.19-3.38,2.66-4,4.72-4m-3.39-4.94c-11,2-7.13,16.67,3.17,14.54a7.43,7.43,0,0,0,5.56-9.87,6.46,6.46,0,0,0-3.78-4.12c-.92-.27-1.74.15-2.62.05s-1.3-.79-2.33-.6m42.22,4.14c-6.66,0-13.31.3-20,.43-2,0-7.29-.88-7.29,2.34,0,3.44,5.83,2.17,7.77,2.12,6.6-.16,13.21-.45,19.79-1.08,1.66-.15,7.4.12,7.4-2.14s-6.37-1.67-7.71-1.67"/><path class="cls-4" d="M739.33,352.82c-16.45.44-32.88.59-49.32,1.44-6.15.31-12.29.54-18.44.54-1.19,0-3.58-.45-4.69.29-3,2,.42,3.77,2.39,3.88,13.51.75,27.21-1.12,40.7-1.54,7.91-.25,15.81-.32,23.71-.72,2.15-.11,4.3-.24,6.46-.41,1.23-.09,4.5.17,5.5-.55,4.37-3.16-4.83-3-6.31-2.93"/><path class="cls-4" d="M663.85,360.86a75.86,75.86,0,0,0,.38,12.7c.22,1.67.32,3.57,2.28,4,1.78.38,2.68-1,3-2.45.9-3.64.1-8.88.09-12.66,0-1.87,0-4-2.31-4.38a2.94,2.94,0,0,0-3.49,2.8"/><path class="cls-4" d="M756.77,371.15q-39.94,2.1-79.88,3.75c-2.08.09-18.22-.09-12.58,5.54,1.74,1.74,6.24.57,8.49.46,3.39-.17,6.78-.3,10.17-.47,13.43-.68,26.9-.87,40.33-1.64q11.07-.63,22.1-1.94c3.5-.41,7.84-.37,11.11-1.74,1.69-.7,3.51-4.14.26-4"/><path class="cls-4" d="M741.46,349.51c-2,2-1,6-.83,8.49.21,3.43.46,6.86.89,10.27.28,2.22.13,5.67,1.32,7.58a3.26,3.26,0,0,0,5.68-.17c1.11-1.91.55-5.94.52-8.07,0-2.93-.22-5.87-.4-8.8-.14-2.45.41-6.38-.93-8.47a4,4,0,0,0-6.25-.83m-60.88,15.65h0m4.74-.59c4.41.89-2.73,6-5,2.5-.36-.55-.54-1.23,0-1.71s.84.34,1.33.13a11.85,11.85,0,0,1,3.61-.92m-.6-4.23c-3,.24-7.16.42-8.65,3.44-2,4.06,1.42,8,5.39,8.65,3.81.6,9.51-1.52,9.81-6,.25-3.58-3.16-6.4-6.55-6.12m25.16,2.14c-3.12,0-9.26-.87-12,.65s-1.49,4.19,1,4.83c1.62.42,4.27-.26,6-.33,2.22-.09,4.44-.11,6.67-.14,3.73-.05,7.47,0,11.21,0s7.7.1,11.51-.18c4.82-.35,4.69-4,0-4.41-8-.77-16.29-.53-24.32-.41m-8,40.44c0,1.72,1.52,0,1.51,0s-1.51-1.71-1.51,0m-34.43-13.81c.09,5,.16,10,.37,15,.07,1.58-.38,4.66,1.53,5.46,2.12.89,2.78-1.34,3-2.85.77-4.78,0-10.24-.06-15.08,0-1.63.33-3.89-1.52-4.7a2.45,2.45,0,0,0-3.35,2.21"/><path class="cls-4" d="M749.47,389.19h0m.18-.05h0m-40.29-4c-7.65.12-15.31.21-23,.54-3.27.14-6.57.25-9.82.56-2.31.22-8,.31-9.53,2.19-3.08,3.89,3.46,2.83,4.87,2.51a46.36,46.36,0,0,1,7.8-.89c5.68-.3,11.37-.46,17.06-.58,15.43-.31,30.87-.26,46.31-.33,1.49,0,4.19-.61,5.58,0s1.3,2.09,1.44,3.82c.19,2.3-1.32,6.69-.17,8.62,1.8,3,4.41.46,4.8-1.73.55-3-.32-6.66-1.17-9.55-1.21-4.08-2.88-4.24-6.83-4.56q-6.9-.57-13.83-.64c-7.84-.07-15.7-.08-23.55,0m30.28,20.61c-16.6,1.93-33.68.79-50.37.86-4.06,0-8.12.05-12.18.25-2.14.1-7.22-.49-8.68,1.16-3.1,3.49,2.47,4,4.51,3.85,4.11-.29,8.23-.43,12.36-.46,14.52-.11,29.13.57,43.64-.15a127,127,0,0,0,18-2.5c1.32-.26,10.37-2,5.21-4-3-1.22-9.28.66-12.48,1"/><path class="cls-4" d="M691.16,399.35h0m-.11,0c0,.11-.16.37,0,0M690,398h0m0,0a3.86,3.86,0,0,1,.81,1.6c-3.44.93-4.76-1.85-.8-1.6m-.22-.13h0m-5.65-4.15c-2.23,2.78-4.07,6-1.29,9.17,2.48,2.83,7.47,3.2,10.62,1.31s3-6.05.7-8.72c-1.45-1.73-2.64-1.68-4.75-2-1.44-.19-4.06-1.31-5.28.2m23,5.13c0,3.7,15.94,2.11,18.78,2.1,2.37,0,16.74,1.31,15.71-2.49-.85-3.12-15-1.57-18-1.57-2.61,0-16.48-1.8-16.48,2"/></g><g class="cls-3"><path class="cls-4" d="M428.07,447c8,1.16,16.29,4.92,16.22,14.21-.06,7.81-6.61,16.13-15,15.66-7.57-.42-14.7-8.7-15.65-15.8a15.23,15.23,0,0,1,2.59-10.66c2.84-4,7.33-3.95,11.87-3.41m-3.77-5a16.34,16.34,0,0,0-13.57,6.53,35.5,35.5,0,0,0-3.75,5.07c-.91,1.68-.75,5.93,2.37,3.94-.77,8.23,4,16.22,11,20.44,7.52,4.59,16,3.7,22.28-2.73,5.73-5.89,7.74-15.83,3.55-23.11s-13.89-10.22-21.85-10.14"/><path class="cls-4" d="M441.61,439.7a51.42,51.42,0,0,0-9.87,9.9c-2.74,3.54-4.55,7.95-7.85,11-1.66-1.81-3.61-6.7-6.92-4.76-2.75,1.61-1,4.38.36,6.19,3.46,4.7,7.3,6.59,11.74,1.95,4-4.21,6.32-9.83,10.09-14.29,1.65-2,4.21-3.89,5.52-6.05,1.2-1.95-.28-6-3.07-4"/></g><g class="cls-3"><path class="cls-4" d="M574.43,124.21l.4,0c3.46-.22,7-.13,10.42-.21,7.09-.16,14.46.22,21.51-.61,1.43-.18,1.93,1.66,1.29,2.61s-3,1-4.1,1.17a90.72,90.72,0,0,1-9.45.77q-5,.21-10,.35c-2.87.07-9.24,1.28-11.9.07-2.07-.93-2-2-1.18-2.78a14,14,0,0,1-.54-3.86,89.74,89.74,0,0,1-.74-11.11c0-7.33,0-14.95,2-22a1.81,1.81,0,0,1-1.3-1.64c0-4.48,16.47-3.41,19.81-3.5,4.1-.11,8.21-.12,12.31-.1,2.71,0,6.38-.57,9.08.06,5.26,1.22,4.92,10.23,5,14.59a228.46,228.46,0,0,1-.55,23.84c-.22,2.69-2.18,6.1-4.42,2.39-1.24-2.07-.69-6.91-.69-9.19,0-8.13,1.27-16.51,0-24.6-.4-2.65-.31-2.83-3-2.77-2.14,0-4.28.11-6.42.16-4.35.09-8.71.15-13.07.31-1.65.06-7.6,1.1-12.23,1.1v.11c.07,3.13-1.47,6.93-1.68,10.23-.5,7.94.1,16-.64,23.94,0,.24,0,.5-.05.75Zm62.41,2.3a5.84,5.84,0,0,1-1.34-2.37c-1.12-3.62-1.22-7.52-1.3-11.27-.18-8-.09-16.06-.14-24.08a2.05,2.05,0,0,1,.61-2.87c2.45-2.11,9.52-1.57,12.63-1.74,4.48-.24,9-.29,13.45-.31,4.75,0,9.51.06,14.26.21,1.76,0,14,.36,8.53,3.33a5.9,5.9,0,0,1-1,.43,17.67,17.67,0,0,1,.22,3.41c-.24,4.27-.34,8.55-.53,12.82q-.31,7.16-.57,14.31c-.09,2.52.77,8.38-1.22,10.2-1.35,1.23-2.27,1-2.89.15-4.77,1.39-15.79.5-17.8.5-3.59,0-23.13,2.31-23.16-1.85a1.39,1.39,0,0,1,.3-.87ZM640,125c5.45-1.17,15.61-.39,17.75-.4,4,0,8,0,11.94.2,1.24,0,4.28-.19,6.67.08,0-.22,0-.42,0-.59-.22-4.29,0-8.63.15-12.93s.36-8.65.52-13c.09-2.23-.47-6.88.13-10.08-2.89,0-5.92-.4-7.87-.4-4.58,0-9.16-.06-13.73,0a134,134,0,0,0-14.86.81c-.27,0-.59.11-.95.19.75,3.13-.16,8.16-.16,11,0,8.12.29,16.19.47,24.27a5.93,5.93,0,0,1,0,.74Z"/><path class="cls-7" d="M590.86,128.08c-2.94,1.72-1.35,8.6-.33,11,1.67,3.91,5.08,7,8.75,9,7.42,4.11,18.11,3,23.73,10.13,0,.08,2,2,2.44-.49.36-2-3.26-5.16-4.67-6.18-4-2.91-9.1-3.85-13.72-5.3-4.92-1.55-10.33-4.41-12.39-9.48-.73-1.8.66-11.29-3.81-8.66m67.31,3.3c-2.7.75-.91,4.46-.92,6.32a11,11,0,0,1-2.17,6.6c-3.63,4.69-10.72,5.39-16,6.74-3.87,1-13.11,3.07-13.47,8.3-.41,5.83,7.75-1.27,8.44-1.56,7.63-2.8,17.5-3.34,23.39-9.5a15.12,15.12,0,0,0,4.09-9.43c.13-2,.15-8.41-3.32-7.47"/><path class="cls-4" d="M622,163.36c11.23-3,21.69,4.91,23,16.23,1.4,11.94-7.61,21.56-19.48,22.09-10.45.46-23.08-7-23.15-18.54-.06-10.79,10.27-17.33,19.61-19.78Zm5.41,8c-1.92,1.12-2.27-1.78-3.63-2.17s-3.56,1-4.7,1.89c-1.93,1.42-7.28,9.7-9.87,5.2-7.87,13.59,11.74,23.75,22.9,18.61,12.24-5.64,9.86-26.28-4.63-26.39.6.82,1.15,2.14-.07,2.86Z"/><path class="cls-4" d="M617.23,179.53c0,2.48,3.91,2.48,3.91,0s-3.91-2.56-3.91,0m6.88-.47c0,3,4.8,3,4.8,0s-4.8-3.13-4.8,0m-4.92,7.08c-3.93,2.3,7.29,6.89,7.73,2.2.19-2-1.76-1.47-3.07-1.62s-3.48-1.27-4.66-.58"/><path class="cls-7" d="M617.49,202.5c.17,5.9.08,11.78,1.2,17.59.21,1.11.36,5.11,1.23,5.93,2.15,2,2.18-1.85,2.27-3.33.3-5.31-.26-10.77-.38-16.09,0-1.15.27-3.52-.27-4.62-.85-1.76-4.14-2.28-4.06.52m-4.19-4.77c-8.6,9.64-20.44,8.93-32.37,9.78-6.3.45-12.67,1.36-17.74,5.44a21.58,21.58,0,0,0-5.76,7c-.6,1.18-3.43,8,.82,6.39,1.51-.57,3-5.09,4-6.43a18.91,18.91,0,0,1,7.1-6c5.5-2.64,12.07-2.59,18-2.93,6.24-.35,12.94-.67,18.67-3.39a28.06,28.06,0,0,0,7.4-4.91c.78-.74,2.44-2,2.57-3.1.14-1.29-1.09-3.63-2.7-1.83"/><path class="cls-4" d="M569.88,227.35c-8.07.27-16.14.59-24.2,1.1-1.66.11-7.17-.23-5.76,3.16,1.12,2.71,7.84.92,10.06.79,8.41-.5,16.85-.67,25.23-1.43,1.89-.17,10.4-.1,6.89-3.44-1.68-1.59-9.9-.26-12.22-.18"/><path class="cls-4" d="M534.79,231.24c-2.55,3.34-1.38,11.47-1.19,15.49s-.57,11,4.52,11.62c-1.62-.21,1.22.1,1.69.12,1,.06,2.07.08,3.1.09,2.39,0,4.78,0,7.16-.05,5.41-.11,10.84-.27,16.24-.57,2.27-.12,14.59,0,15.07-2.38.63-3-11.18-1.31-13.3-1.21-5.15.23-10.3.28-15.46.35-2.55,0-5.11.06-7.66,0-1.06,0-5.23.41-5.88-.29s-.12-6.11-.13-6.95c0-2.75,0-5.5.07-8.24.06-1.85,1.06-5.37.25-7.1a2.81,2.81,0,0,0-4.48-.89"/><path class="cls-4" d="M576.38,231.4c.14,6.11.19,12.35,1.63,18.34.48,2,1.16,6.09,3.16,7.12s3.91-.46,4.05-2.54c.17-2.61-1.23-6-1.52-8.73-.33-3.13-.53-6.26-.64-9.41-.09-2.37.63-5.91-1.63-7.44a3.25,3.25,0,0,0-5,2.66m16.07-1.5c-2.51,2.51-1.39,10.43-1.08,13.64.23,2.36,2.81,13.94,6.67,7.9,1.71-2.67-.46-9.74-.44-12.85,0-2,.71-4.5.37-6.4-.45-2.52-3.24-4.56-5.52-2.29"/><path class="cls-4" d="M651.54,250.58a2.12,2.12,0,0,1,.44,2.29c-.87,2-4.05,1.57-5.77,1.71-5.76.48-11.55.8-17.33.85-5.59,0-11.17-.09-16.76,0-4.65.05-9.5,1-14.11.8-1.92-.08-4-.71-3.49-3.19.43-2.21,2.65-2.23,4.46-2.41a154.72,154.72,0,0,1,16.39-.73c11.52,0,23,0,34.54-.08a2.51,2.51,0,0,1,1.28.49c-.6-.73-.31-1.81-.42-2.87-.3-2.85-.5-5.65-1-8.5-.43-2.27-.76-6.14-2.87-7.58-2.3-1.56-7.42-1-10.17-1.11a191.64,191.64,0,0,0-22.21,1c-3.36.31-6.76.54-10.08,1.14-1.85.34-7.28,3.05-8.76,1.38-3.55-4,12.08-5.67,14.2-5.89,7.55-.78,15.1-1.36,22.69-1.44,5.12,0,13.89-.47,17.65,3.73,2.27,2.52,3.06,6.68,3.94,9.83.68,2.42,2.52,6.78,1.21,9.28-.59,1.13-1.54,2.09-3,1.69a2.55,2.55,0,0,1-.81-.35Z"/><path class="cls-7" d="M690.11,218.68h0m-51.06-24.93c-4.58,2.7,3.9,10.6,6.06,11.82,4.86,2.75,11.55,3.17,17,3.94,6.87,1,14.35,1.34,20.95,3.59a13.21,13.21,0,0,1,6.45,4.76c.93,1.16,3.18,6.19,5.23,5,4.12-2.39-7-12.45-9.43-13.53-5.57-2.46-12.14-3.14-18.09-4.1-5.53-.88-11.18-1.54-16.57-3.11a11,11,0,0,1-6.78-4.9c-1.07-1.66-1.94-5.13-4.79-3.47"/><path class="cls-4" d="M663.64,251.94c-1.37-2.63-2-7.67-2.13-8.67a93.63,93.63,0,0,1-.49-12.86,2.82,2.82,0,0,1,4.52-2.17c2.35-1,6.33-1.14,8.47-1.35,3.52-.36,7.06-.49,10.59-.7,8.23-.49,16.45-1.38,24.7-1.56,2.47-.06,5.77-.28,7.75,1.54,2.24,2.08,2.69,7.22,3.37,10a68.35,68.35,0,0,1,1.91,9.16,18.27,18.27,0,0,1,.18,3.08,1.93,1.93,0,0,1,1.53,2.23c-.19,2-3,2.29-4.63,2.61-5.44,1.07-11.26.82-16.78,1-11.54.32-23.89,2.19-35.4,1.08-2-.19-4.08-.89-3.59-3.37Zm4.15-2.38h1.33q8.71-.15,17.42-.5c5.92-.22,11.84-.48,17.76-.55,4.71,0,9.56.36,14.3.17-1-2.67-.87-6.87-1.41-9.63s-.75-6-1.85-8.58c-1.24-2.9-2.32-2.22-5.55-2s-6.65.54-10,.81c-7.3.6-14.61,1-21.92,1.49-3.79.26-7.42,1.35-11.12,1.77-.06,1.32-.24,2.66-.22,3.62.06,2.85.34,5.68.59,8.52.1,1.15.57,3.14.64,4.88Z"/><path class="cls-4" d="M407,297.08c0,2.48,3.92,2.48,3.92,0s-3.92-2.55-3.92,0m6.89-.46c0,3,4.8,3,4.8,0s-4.8-3.13-4.8,0M409,303.69c-3.92,2.31,7.3,6.89,7.74,2.21.19-2-1.77-1.48-3.07-1.63s-3.48-1.27-4.67-.58"/></g></g><path class="cls-8" d="M280,323.72c-4-4.74-6.77-10.55-6.31-17.07,1.31-18.76,27.43-14.63,32.51-5.16s4.48,33.49-2.09,35.18c-2.61.68-8.19-1-13.87-4.4l3.56,25.22h-21L280,323.72Z"/><path class="cls-9" d="M297.84,291.17a27.65,27.65,0,0,0-8.8-1,15.15,15.15,0,0,0,1.07-7.65c-.31-2.53-1.44-4.67-2.48-6.93a9.87,9.87,0,0,0-1.84-2.86,6.25,6.25,0,0,0-3-1.59,8.1,8.1,0,0,0-3.43,0c-.5.11-.94.34-1.43.46s-.74-.18-1.1-.5a6.31,6.31,0,0,0-3.27-1.26,8.51,8.51,0,0,0-3.71.44,7.3,7.3,0,0,0-3.09,2,5.06,5.06,0,0,0-.93,1.42c-.09.21-.1.34-.32.42s-.43.07-.64.14a8.08,8.08,0,0,0-4.61,4.18,13.26,13.26,0,0,0-.72,5.44c.07,2.27,2.12,8.19,4,10.35a12.9,12.9,0,0,0,6.65,3.76,19,19,0,0,0-3.47,6.48,31.61,31.61,0,0,0-1.59,7.87,25.56,25.56,0,0,0,.39,7.76,8.43,8.43,0,0,0,3.76,5.48,17.78,17.78,0,0,0,2.9,1.36,19.89,19.89,0,0,0,3,1c1.94.4,4.17.33,5.67-1.21a11,11,0,0,0,1.52-1.94c.14-.24.23-.4,0-.64a4,4,0,0,0-.8-.73,7.61,7.61,0,0,1-2.67-5c-.24-2.05.31-4.7,2.31-5.6,2.47-1.1,5.18.17,7.37,1.35a12.05,12.05,0,0,1,5.84-7.75c3.32-1.67,7.12-1.86,10.53-3.29a6.3,6.3,0,0,0,2.44-1.56,3.12,3.12,0,0,0,.71-1.15,1.89,1.89,0,0,0-.49-1.44c-1.46-2.28-7-6.89-9.86-7.77Z"/><ellipse class="cls-10" cx="271.04" cy="519.33" rx="67.51" ry="64.68"/><path class="cls-8" d="M398.28,573.69c-11.22-24.87-19.33-46.53-22.59-58-5.57-19.57-9.81-36.79-10.88-43.22-2.56-15.33,19.66-16.23,22.6-8.61,4.44,11.54,12.21,49.43,21.53,106.68l-10.66,3.11ZM268.17,495.62c10.29-4.07,46.33-16.83,63.71-20.44q7.19-1.49,14.39-2.87c13.53-2.58,20.54,21.87,7.51,23.75-32.45,4.68-78.46,9.51-82.4,10.05-5.51.76-9.68-7.92-3.21-10.49Z"/><path class="cls-11" d="M354.57,465.58,298.9,437.19V431h6.63q80.78,20.63,82.56,26.43l0,.13.09.11c10.67,14.7,17.06,86.51,19.16,91.89l-20.45,3c-7.83-29.07-32.86-49.32-32.19-84.13a11.36,11.36,0,0,1-.16-2.91Z"/><path class="cls-12" d="M303.53,482.45c-5.09-1-9.78-1.94-13.8-2.64-25.92-4.56-33.48-18.46-29-48.8h47.76c7.81,2.24,48.36,19.28,69.4,28.35,13.93,6,9.54,27.62,1.65,33.24a.78.78,0,0,1-.44.69c-42.42,17.62-76,8.37-87.19,11.32l-5.18-16.38,16.81-5.78Z"/><path class="cls-13" d="M271.92,493.05a19.13,19.13,0,0,0-6.16,1.27,42.89,42.89,0,0,0-5.87,3.75l21.8,44.69q6.57-1.05,5.2-5-1.15-3.3-2.22-6.64l-.92-25.37a.79.79,0,0,0-.81-.75h0l-4,.24a15.82,15.82,0,0,1-4.36-4.86,14.76,14.76,0,0,1-1-5.78,1.55,1.55,0,0,0-1.59-1.52Zm121.35,75.81a19.23,19.23,0,0,0-1.56,6.09,43.83,43.83,0,0,0,.8,6.92h49.72q1.93-6.37-2.24-6.88t-6.94-.92l-23.2-10.29a.78.78,0,0,0-1,.4h0l-1.53,3.68a15.84,15.84,0,0,1-6.28,1.8,14.75,14.75,0,0,1-5.62-1.67,1.57,1.57,0,0,0-2.07.76l0,.1Z"/><path class="cls-8" d="M345.36,418.85l28,20.5a75.2,75.2,0,0,1,19,7.62c1.2,1.1,2.66,3.31-2.33,2.93s-10.25-.56-10.93,1.13,2.33,3.73.93,6q-1.38,2.29-13.14-11.48L339.18,434.1l6.18-15.25Zm-107.38.7,18.32.08q-17,54.67-18.32,58c-2,5,2.26,12.66,4.1,16.77-6,2.67-5.34-7.22-12.89-3.72-6.88,3.2-12.12,9-20.07,4.09-1-.6-2.05-2.87.54-4.64,6.45-4.42,15.74-12.15,17-14.69q2.57-5.21,11.32-55.92Z"/><path class="cls-14" d="M290.05,342.81l7.58-1.3c28.13,24.26,39.68,70.86,74.17,95.54l-8.3,10.27c-59.82-7.39-74.65-64.23-73.45-104.51Z"/><path class="cls-15" d="M257,437.92h67.08c3.07,0,2.49-4.42,2.05-6.65-5.12-25.73-25.08-53.47-25.08-90.1l-19.35-3c-16,25.7-21.54,57.33-24.7,99.78Z"/><path class="cls-16" d="M257.54,363.4a11.08,11.08,0,0,1-6.68-5.65c-7.07-12.73-4.52-19.75,3-22.05s14.3,2.44,26.34,2.44a12.34,12.34,0,0,1,1.8.12l6.06.35q26.07,88.2,14.38,117.69h-52.8a180.83,180.83,0,0,1-9,18.38H226.31q-2-65.56,31.23-111.28Z"/><path class="cls-17" d="M261.18,426.1q2.49,20.81,8.09,30.2H249.68q5.48-12.75,11.5-30.2Z"/><g id="Head"><path class="cls-8" d="M605.66,334.2c4-4.65,6.64-10.34,6.19-16.72-1.29-18.39-26.88-14.34-31.86-5.06s-4.39,32.81,2,34.47c2.56.66,8-1,13.59-4.31l-3.49,24.7h20.62Z"/></g><g id="Hijab"><path id="Front" class="cls-18" d="M584.63,306.3c.48-.29,1.47-.88,2-1.1.11-.05.94-.64,1-.63.62.21,2.44,1,2.6,1.67l.07.14c.26.47.49.95.72,1.43.49,1.07.92,2.19,1.33,3.29.79,2.15,1.48,4.36,2.12,6.57s1.19,4.52,1.81,6.78c.88,3.25,2,6.42,2.89,9.67a19,19,0,0,1,.72,6.3v.11c0,.33-.06.66-.11,1s-.08.56-.13.85c-.8-1.6-1.41-3.36-2.06-5-.07-.17-.13-.33-.19-.5-.2-.34-.42-.67-.63-1-1.37-2.11-2.73-4.22-4-6.37a113.68,113.68,0,0,0-7.46-11.38c-.82-1.05-1.66-2.08-2.47-3.14-.46-.6-.91-1.22-1.35-1.84-.31-.45-1.66-2-1.17-2.93A25.15,25.15,0,0,1,584.63,306.3Z"/><path id="Turban" class="cls-19" d="M586.45,305.28c-.46.16-.24-.8.21-1.14,2.06-1.55,9.94-2.12,16.79-.7a33.42,33.42,0,0,1,13.61,6.38c3.3,2.75,5.58,7.16,6.75,11.42a33.25,33.25,0,0,1,.73,13.72c-.15,1-.48,2-.66,3a22.69,22.69,0,0,1-.66,3.26c-.23.66-.6,1.31-.79,2a4.49,4.49,0,0,0,.07,2.24,25.19,25.19,0,0,0,1,3.71c.68,1.81,1.5,3.5,2,5.37.68,2.49,3.56,10.6,1.46,12.81H587c1-2.74,4-6,4.64-8.91.36-1.73.53-5.51.57-5.65.9-6.21,2.66-9.17,3.76-10.25s2.57-1.41,2.64-2.34c.32-3.86-1.22-7.56-2.34-11.16-1.34-4.29-2.33-8.69-3.71-13C592,314.1,588.83,304.48,586.45,305.28Z"/><path id="Shade" class="cls-20" d="M600.46,309.72c1.51,4.78,1.83,7.34,1.51,13.87h.73c1.39-6.17.16-12-1.31-13.87Zm20.22,12.34c-2.81,6.82-4.09,10.84-11.94,16.36l.61.42c7.79-4.41,10-9.68,11.92-16.49Zm-11.54-6.93c-1.28,9.67-1.65,15.2-8.3,25.78l.71.21c6.84-9.21,7.92-16.73,8.25-25.94Zm7.34,28.73-.61-.74c-8.25,2.59-7.33,7.93-17.73,13.33l.87.53C608.11,353.22,610.24,345.16,616.48,343.86Z"/></g><path class="cls-8" d="M539.31,427.81,515,451.55a73.55,73.55,0,0,0-17.41,10c-1,1.22-2.12,3.58,2.66,2.52s9.87-1.94,10.77-.38-1.75,3.94-.09,6q1.66,2,11.18-12.95l25.3-14.92Zm119-21.48-18.81.07Q661,476,662.32,479.31c2,4.93-2.22,12.43-4,16.46,5.86,2.62,5.24-7.09,12.63-3.65,6.74,3.14,11.87,8.83,19.67,4,1-.59,2-2.82-.53-4.56-6.32-4.33-15.43-11.92-16.66-14.42Q670.89,472.06,658.31,406.33Z"/><path id="Clothes-Back" class="cls-14" d="M601,353l-7.43-1.27c-11.7,41.36-71.82,69.56-75.52,85-1.35,5.68,2.73,8.54.62,10.27l9.66,7.07c1.63-1.91,5.12,1.58,12.41-.86S601,401.94,601,353Z"/><g id="Seat"><polygon id="Seat-Stuff" class="cls-21" points="650.02 474.67 583.65 474.67 574.96 581.19 673.75 581.19 650.02 474.67"/><polygon class="cls-17" points="650.02 474.67 629.61 474.67 617.39 581.19 673.75 581.19 650.02 474.67"/></g><path id="Skin" class="cls-8" d="M508,456.42c-7.08-4.25-18.95,1.21-18.94,7.28,0,18.18,16.62,103.88,17.48,109.29s10.15,6.85,10.69,0c.86-10.87,2.46-48.49.86-65.9-.66-7.19-1.37-14-2.07-20.14q13.07,23.58,40.4,67.53L566.3,550q-11.65-38.39-19.11-54.21c-8.51-18-16.5-33.52-19.86-39C522.05,448.24,512.85,451.23,508,456.42Z"/><path id="LegLower" class="cls-11" d="M565.59,535.77l-34-80.44c-8.14-13.09-30.95,2.66-28.17,10.25,6.3,17.23,38.33,73,40.2,78.15Z"/><path id="shoe" class="cls-13" d="M567.48,544.91a18.48,18.48,0,0,1,4.13,4.27,43.75,43.75,0,0,1,2.72,6.26l-42,24.22q-4.77-4.45-1.49-6.92c2.19-1.65,4-3,5.41-4.16l14.48-20a.86.86,0,0,1,1.2-.19l0,0,3,2.31a15.35,15.35,0,0,0,6.18-1.54,13.75,13.75,0,0,0,3.81-4h0a1.71,1.71,0,0,1,2.39-.4Z"/><path class="cls-13" d="M519.39,568.65a18.61,18.61,0,0,1,1.45,5.76,42.75,42.75,0,0,1-.78,6.78H471.61q-1.89-6.24,2.18-6.74t6.76-.9l22.52-10a.85.85,0,0,1,1.13.44v0l1.45,3.51a15.48,15.48,0,0,0,6.12,1.76,13.9,13.9,0,0,0,5.29-1.55h0a1.73,1.73,0,0,1,2.28.85S519.38,568.61,519.39,568.65Z"/><path id="Leg-and-Butt" class="cls-12" d="M486.67,469.88c0,22.83,10.84,76.06,10.85,81.09l23.32,0q-5.13-71.26-3.64-72c1.49-.77,61,5.94,78.9,5.94,25.76,0,36.41-16.24,37.27-46.33h-51c-10.39,1.12-64.57,12-84.7,15.8C489.05,456,486.67,463.6,486.67,469.88Z"/><path id="Clothes-Front" class="cls-16" d="M588.5,358.46c.85,54.77-30.81,68.74-23.75,90.71,5.82,18.14,61.56,37.64,71.2,19.86,3.91-7.2,5.68-15.91,5.88-25.37q3.69,10.9,5.85,18.78c2.47,9.05,12.06,10.49,12.06,14l12.64-3.49c-.86-4.74,5.1-7,3.5-17.63q-10.73-71.16-57.68-103.16l-.33-4.63a3.42,3.42,0,0,0-3.67-3.18l-23.13,1.61a3.44,3.44,0,0,0-3.19,3.67Z"/></g></svg>