<svg width="173" height="173" viewBox="0 0 173 173" fill="none" xmlns="http://www.w3.org/2000/svg">
<rect x="7" y="71.5" width="159" height="27" rx="13.5" fill="url(#paint0_linear)"/>
<rect x="73" y="164.5" width="159" height="27" rx="13.5" transform="rotate(-90 73 164.5)" fill="url(#paint1_linear)"/>
<circle cx="20.5" cy="85" r="13.5" fill="black"/>
<circle cx="152.5" cy="85" r="13.5" fill="black"/>
<circle cx="86.5" cy="151" r="13.5" transform="rotate(-90 86.5 151)" fill="black"/>
<circle cx="86.5" cy="19" r="13.5" transform="rotate(-90 86.5 19)" fill="black"/>
<circle cx="50.5943" cy="50.5943" r="10.3865" transform="rotate(45 50.5943 50.5943)" fill="black"/>
<circle cx="122.406" cy="122.406" r="10.3865" transform="rotate(45 122.406 122.406)" fill="black"/>
<circle cx="50.5943" cy="122.406" r="10.3865" transform="rotate(-45 50.5943 122.406)" fill="black"/>
<circle cx="122.406" cy="50.5943" r="10.3865" transform="rotate(-45 122.406 50.5943)" fill="black"/>
<circle cx="86.5" cy="85" r="13.5" fill="black"/>
<defs>
<linearGradient id="paint0_linear" x1="166" y1="84.5" x2="7" y2="84.5" gradientUnits="userSpaceOnUse">
<stop/>
<stop offset="1" stop-color="#C4C4C4" stop-opacity="0"/>
</linearGradient>
<linearGradient id="paint1_linear" x1="232" y1="177.5" x2="73" y2="177.5" gradientUnits="userSpaceOnUse">
<stop/>
<stop offset="1" stop-color="#C4C4C4" stop-opacity="0"/>
</linearGradient>
</defs>
</svg>
